<?xml version="1.0" encoding="UTF-8"?>
<svg id="Capa_1" data-name="Capa 1" xmlns="http://www.w3.org/2000/svg" viewBox="0 0 1726.56 428.43">
  <defs>
    <style>
      .cls-1 {
        font-family: HelveticaNeue, 'Helvetica Neue';
        font-size: 68.44px;
      }

      .cls-1, .cls-2 {
        fill: #1d1d1b;
      }

      .cls-3 {
        fill: #8ebf24;
      }

      .cls-4 {
        letter-spacing: 0em;
      }

      .cls-5 {
        letter-spacing: -.09em;
      }
    </style>
  </defs>
  <g>
    <path class="cls-3" d="M196.29,133.32h-69.41c-52.04,0-92.81,39.5-92.81,89.93s41.64,92.81,92.81,92.81c43.5,0,70.55-30.57,107.98-72.87,3.84-4.35,7.82-8.82,11.88-13.36h-99.94v22.47h43.33c-10.78,23.7-34.62,40.24-62.31,40.24h-1.66c-37.75,0-68.47-30.72-68.47-68.47s30.72-68.47,68.47-68.47l70.13.03v-22.31Z"/>
    <path class="cls-3" d="M254.97,338.3v-97.98c-3.51,3.93-6.93,7.8-10.27,11.58-38.22,43.19-68.4,77.31-117.82,77.31-58.42,0-105.95-47.53-105.95-105.95s46.54-103.07,105.95-103.07h69.41v-22.28h-70.13C56.48,97.9,0,154.39,0,224.07h0c0,69.68,56.48,126.16,126.16,126.16h1.66c43.8,0,82.37-22.32,104.99-56.2v44.27h22.16Z"/>
    <polygon class="cls-3" points="232.81 194.6 146.8 194.6 146.8 216.68 268.11 216.68 268.11 338.3 290.5 338.3 290.5 252.29 290.5 194.6 232.81 194.6"/>
  </g>
  <text class="cls-1" transform="translate(551.74 395.51)"><tspan class="cls-5" x="0" y="0">T</tspan><tspan class="cls-4" x="32.99" y="0">u aliado en movimiento</tspan></text>
  <g>
    <path class="cls-2" d="M618.86,275.06c-12.36,0-23.64-3.17-33.82-9.53-10.18-6.36-18.27-14.88-24.27-25.58-6-10.71-9.01-22.58-9.01-35.64,0-9.75,1.75-18.92,5.23-27.53,3.47-8.62,8.25-16.2,14.36-22.72,6.08-6.52,13.17-11.66,21.27-15.4,8.09-3.75,16.83-5.62,26.24-5.62,11.83,0,21.06,2.22,27.67,6.65,6.61,4.45,11.75,10.31,15.4,17.62v-21.4h34.99v135.74h-34.2v-22.18c-3.65,7.66-8.83,13.83-15.53,18.52-6.7,4.7-16.14,7.05-28.32,7.05ZM624.59,243.22c7.84,0,14.58-1.78,20.23-5.35,5.66-3.57,10.06-8.31,13.19-14.23,3.13-5.91,4.7-12.36,4.7-19.32s-1.57-13.66-4.7-19.58c-3.13-5.91-7.53-10.7-13.19-14.36-5.65-3.66-12.39-5.48-20.23-5.48s-14.05,1.79-19.71,5.35c-5.66,3.57-10.05,8.31-13.17,14.23-3.14,5.93-4.71,12.45-4.71,19.58s1.57,13.19,4.71,19.19c3.13,6,7.51,10.83,13.17,14.49,5.66,3.66,12.23,5.48,19.71,5.48Z"/>
    <path class="cls-2" d="M768.17,274.8c-9.75,0-18.54-2.25-26.38-6.79-7.82-4.52-14-11-18.52-19.44-4.53-8.45-6.79-18.32-6.79-29.62v-83.02h35.24v74.39c0,11.66,2.34,20.2,7.04,25.59,4.7,5.39,11.4,8.09,20.11,8.09,7.48,0,14.05-2.7,19.71-8.09,5.65-5.39,8.48-13.93,8.48-25.59v-74.39h35.25v135.74h-34.2v-20.36c-3.3,7.82-8.14,13.71-14.49,17.62-6.36,3.91-14.83,5.87-25.44,5.87Z"/>
    <path class="cls-2" d="M914.62,271.67c-13.4,0-23.67-3.3-30.81-9.91-7.13-6.62-10.7-17.32-10.7-32.11v-63.71h-19.06v-30.01h19.06v-27.42l35.24-3.66v31.08h28.72v30.01h-28.72v61.87c0,8.36,3.66,12.54,10.97,12.54h14.63v31.33h-19.32Z"/>
    <path class="cls-2" d="M1012.26,275.06c-13.93,0-26.36-3.22-37.33-9.66-10.97-6.43-19.55-15.01-25.71-25.71-6.18-10.7-9.28-22.58-9.28-35.64s3.1-24.97,9.28-35.76c6.16-10.79,14.74-19.4,25.71-25.84,10.97-6.43,23.4-9.66,37.33-9.66s26.59,3.23,37.46,9.66c10.88,6.45,19.4,15.06,25.58,25.84,6.18,10.79,9.28,22.72,9.28,35.76s-3.1,24.94-9.28,35.64c-6.18,10.7-14.7,19.28-25.58,25.71-10.88,6.45-23.37,9.66-37.46,9.66ZM1012.26,242.95c7.48,0,14-1.78,19.58-5.35,5.57-3.56,9.88-8.31,12.92-14.23,3.05-5.91,4.56-12.36,4.56-19.32s-1.51-13.65-4.56-19.58c-3.04-5.91-7.35-10.65-12.92-14.23-5.57-3.56-12.09-5.35-19.58-5.35s-14.02,1.79-19.58,5.35c-5.57,3.57-9.88,8.31-12.92,14.23-3.05,5.93-4.58,12.45-4.58,19.58s1.53,13.41,4.58,19.32c3.04,5.91,7.35,10.67,12.92,14.23,5.56,3.57,12.09,5.35,19.58,5.35Z"/>
    <path class="cls-2" d="M1100.24,271.67V81.1h35.24v190.57h-35.24Z"/>
    <path class="cls-2" d="M1221.36,275.06c-13.93,0-26.2-3.22-36.81-9.66-10.61-6.43-18.84-15.01-24.67-25.71-5.82-10.7-8.74-22.58-8.74-35.64s3.05-25.01,9.14-35.89c6.09-10.88,14.4-19.53,24.93-25.98,10.54-6.43,22.58-9.65,36.16-9.65s25.53,3.22,35.89,9.65c10.36,6.45,18.43,15.1,24.27,25.98,5.84,10.88,8.74,22.85,8.74,35.89,0,1.93-.09,3.93-.27,6.02-.18,2.09-.41,4.27-.77,6.52h-101.54c1.91,8,5.78,14.54,11.6,19.58,5.84,5.05,13.19,7.57,22.07,7.57,7.66,0,14.32-1.73,19.98-5.22,5.65-3.48,10.05-7.84,13.17-13.06l27.4,20.63c-5.39,8.52-13.47,15.49-24.26,20.88-10.8,5.39-22.9,8.09-36.29,8.09ZM1220.84,162.81c-8.36,0-15.5,2.52-21.41,7.57-5.91,5.05-9.83,11.66-11.74,19.84h67.09c-1.91-7.48-5.87-13.93-11.88-19.32-6-5.39-13.35-8.09-22.05-8.09Z"/>
    <path class="cls-2" d="M1365.72,275.06c-12.36,0-23.65-3.17-33.82-9.53-10.2-6.36-18.29-14.88-24.27-25.58-6.02-10.71-9.01-22.58-9.01-35.64,0-9.75,1.75-18.92,5.22-27.53,3.47-8.62,8.27-16.2,14.37-22.72,6.08-6.52,13.16-11.66,21.25-15.4,8.09-3.75,16.83-5.62,26.26-5.62,11.83,0,21.04,2.22,27.65,6.65,6.61,4.45,11.77,10.31,15.41,17.62v-21.4h34.97v135.74h-34.2v-22.18c-3.65,7.66-8.83,13.83-15.53,18.52-6.7,4.7-16.12,7.05-28.3,7.05ZM1371.44,243.22c7.85,0,14.58-1.78,20.24-5.35,5.66-3.57,10.05-8.31,13.19-14.23,3.11-5.91,4.68-12.36,4.68-19.32s-1.57-13.66-4.68-19.58c-3.14-5.91-7.53-10.7-13.19-14.36-5.66-3.66-12.39-5.48-20.24-5.48s-14.05,1.79-19.71,5.35c-5.66,3.57-10.05,8.31-13.16,14.23-3.14,5.93-4.71,12.45-4.71,19.58s1.57,13.19,4.71,19.19c3.11,6,7.5,10.83,13.16,14.49,5.66,3.66,12.24,5.48,19.71,5.48Z"/>
    <path class="cls-2" d="M1511.13,275.06c-22.79,0-41.61-7.91-56.4-23.75l23.77-21.67c9.93,11.14,20.54,16.7,31.83,16.7,6.11,0,10.76-1.35,13.99-4.05,3.2-2.7,4.83-6.05,4.83-10.05,0-2.43-.56-4.52-1.72-6.27-1.13-1.73-3.47-3.39-7.02-4.96-3.59-1.56-8.92-3.13-16.06-4.7-12.18-2.95-21.25-6.61-27.15-10.95-5.93-4.36-9.84-9.23-11.77-14.63-1.9-5.39-2.85-10.97-2.85-16.7,0-11.84,4.48-21.71,13.43-29.64,8.98-7.91,21.37-11.87,37.2-11.87,10.97,0,20.36,1.64,28.22,4.95,7.82,3.32,15.2,9.5,22.17,18.54l-25.58,19.58c-3.29-5.22-6.99-8.95-11.08-11.22-4.09-2.27-8.42-3.39-12.92-3.39-4.89,0-8.92.95-12.15,2.87-3.23,1.91-4.83,4.95-4.83,9.13,0,2.27,1.07,4.49,3.14,6.65,2.07,2.18,7.14,4.31,15.15,6.4,13.22,3.3,23.33,7.17,30.29,11.62,6.94,4.43,11.74,9.44,14.34,15.01,2.61,5.57,3.91,11.74,3.91,18.54,0,8.34-2.31,15.83-6.91,22.44-4.62,6.62-10.88,11.84-18.79,15.66-7.94,3.84-16.95,5.75-27.03,5.75Z"/>
    <path class="cls-2" d="M1642.69,275.06c-13.93,0-26.2-3.22-36.81-9.66-10.61-6.43-18.85-15.01-24.69-25.71-5.81-10.7-8.74-22.58-8.74-35.64s3.05-25.01,9.16-35.89c6.08-10.88,14.4-19.53,24.93-25.98,10.52-6.43,22.58-9.65,36.16-9.65s25.52,3.22,35.89,9.65c10.34,6.45,18.43,15.1,24.27,25.98,5.84,10.88,8.74,22.85,8.74,35.89,0,1.93-.09,3.93-.27,6.02-.18,2.09-.41,4.27-.77,6.52h-101.54c1.9,8,5.78,14.54,11.59,19.58,5.84,5.05,13.19,7.57,22.08,7.57,7.65,0,14.32-1.73,19.98-5.22,5.63-3.48,10.05-7.84,13.16-13.06l27.42,20.63c-5.39,8.52-13.49,15.49-24.27,20.88-10.79,5.39-22.88,8.09-36.28,8.09ZM1642.16,162.81c-8.36,0-15.5,2.52-21.4,7.57-5.93,5.05-9.84,11.66-11.74,19.84h67.07c-1.9-7.48-5.87-13.93-11.88-19.32-5.99-5.39-13.34-8.09-22.05-8.09Z"/>
  </g>
  <path class="cls-2" d="M1719.09,260.1c1.26,0,2.48.32,3.68.97,1.2.64,2.13,1.57,2.8,2.77.67,1.2,1,2.45,1,3.75s-.33,2.53-.99,3.72c-.66,1.19-1.58,2.11-2.77,2.77-1.19.66-2.43.99-3.72.99s-2.54-.33-3.72-.99-2.11-1.58-2.77-2.77c-.66-1.19-.99-2.43-.99-3.72s.34-2.55,1.01-3.75c.67-1.2,1.6-2.12,2.8-2.77,1.2-.64,2.42-.97,3.68-.97ZM1719.09,261.34c-1.05,0-2.07.27-3.07.81-.99.54-1.77,1.31-2.33,2.31-.56,1-.84,2.04-.84,3.13s.28,2.11.83,3.1c.55.99,1.32,1.76,2.32,2.31.99.55,2.03.83,3.1.83s2.11-.28,3.1-.83,1.76-1.32,2.31-2.31c.55-.99.82-2.02.82-3.1s-.28-2.13-.84-3.13c-.56-1-1.34-1.77-2.33-2.31-1-.54-2.02-.81-3.06-.81ZM1715.81,271.72v-8.05h2.77c.95,0,1.63.07,2.05.22.42.15.76.41,1.01.78.25.37.38.76.38,1.18,0,.59-.21,1.1-.63,1.54-.42.44-.98.68-1.67.73.28.12.51.26.68.43.32.32.72.85,1.19,1.6l.98,1.58h-1.59l-.71-1.27c-.56-1-1.01-1.62-1.36-1.87-.24-.19-.58-.28-1.04-.28h-.76v3.42h-1.3ZM1717.1,267.19h1.58c.75,0,1.27-.11,1.54-.34.27-.22.41-.52.41-.89,0-.24-.07-.45-.2-.64-.13-.19-.32-.33-.55-.42-.23-.09-.67-.14-1.3-.14h-1.48v2.43Z"/>
  <g>
    <path class="cls-2" d="M373.78,194.63h-70.44v22.28h69.73c52.04,0,92.81-39.5,92.81-89.93s-41.63-92.81-92.81-92.81c-43.5,0-70.55,30.57-107.98,72.87-3.84,4.35-7.82,8.82-11.88,13.36h99.94v-22.47h-43.33c10.78-23.7,34.62-40.24,62.31-40.24h1.66c37.75,0,68.47,30.72,68.47,68.47s-30.72,68.47-68.47,68.47Z"/>
    <path class="cls-2" d="M373.78,0h-1.66c-43.8,0-82.37,22.32-104.99,56.2V11.93h-22.16v97.98c3.51-3.93,6.93-7.8,10.27-11.58,38.22-43.19,68.4-77.31,117.82-77.31,58.42,0,105.95,47.53,105.95,105.95s-46.54,103.07-105.95,103.07h-69.73v108.25h22.27v-85.97h48.18c69.68,0,126.16-56.49,126.16-126.16h0C499.94,56.48,443.46,0,373.78,0Z"/>
    <polygon class="cls-2" points="353.14 133.55 231.83 133.55 231.83 11.93 209.44 11.93 209.44 97.93 209.44 155.63 267.14 155.63 353.14 155.63 353.14 133.55"/>
  </g>
</svg>