<?xml version="1.0" encoding="UTF-8"?>
<svg id="Capa_1" xmlns="http://www.w3.org/2000/svg" version="1.1" viewBox="0 0 1726.56 428.43">
  <!-- Generator: Adobe Illustrator 30.0.0, SVG Export Plug-In . SVG Version: 2.1.1 Build 123)  -->
  <defs>
    <style>
      .st0 {
        isolation: isolate;
      }

      .st1 {
        fill: #8ebf24;
      }

      .st2 {
        fill: #2d6548;
      }
    </style>
  </defs>
  <g>
    <path class="st1" d="M196.29,133.32h-69.41c-52.04,0-92.81,39.5-92.81,89.93s41.64,92.81,92.81,92.81c43.5,0,70.55-30.57,107.98-72.87,3.84-4.35,7.82-8.82,11.88-13.36h-99.94v22.47h43.33c-10.78,23.7-34.62,40.24-62.31,40.24h-1.66c-37.75,0-68.47-30.72-68.47-68.47s30.72-68.47,68.47-68.47l70.13.03v-22.31h0Z"/>
    <path class="st1" d="M254.97,338.3v-97.98c-3.51,3.93-6.93,7.8-10.27,11.58-38.22,43.19-68.4,77.31-117.82,77.31-58.42,0-105.95-47.53-105.95-105.95s46.54-103.07,105.95-103.07h69.41v-22.28h-70.13c-69.68,0-126.16,56.48-126.16,126.16h0c0,69.68,56.48,126.16,126.16,126.16h1.66c43.8,0,82.37-22.32,104.99-56.2v44.27h22.16Z"/>
    <polygon class="st1" points="232.81 194.6 146.8 194.6 146.8 216.68 268.11 216.68 268.11 338.3 290.5 338.3 290.5 252.29 290.5 194.6 232.81 194.6"/>
  </g>
  <g class="st0">
    <g class="st0">
      <path class="st2" d="M551.88,352.12v-5.48h39.08v5.48h-16.29v43.39h-6.5v-43.39h-16.29Z"/>
    </g>
    <g class="st0">
      <path class="st2" d="M612.93,395.51v-5.61h-.14c-1.23,2.19-2.81,3.8-4.72,4.83-1.92,1.03-4.17,1.54-6.78,1.54-2.33,0-4.27-.31-5.82-.92-1.55-.62-2.81-1.49-3.76-2.63s-1.63-2.5-2.02-4.07c-.39-1.57-.58-3.32-.58-5.24v-23.27h5.82v23.95c0,2.19.64,3.92,1.92,5.2,1.28,1.28,3.03,1.92,5.27,1.92,1.78,0,3.32-.27,4.62-.82,1.3-.55,2.38-1.32,3.25-2.33.87-1,1.52-2.18,1.95-3.52.43-1.35.65-2.82.65-4.42v-19.98h5.82v35.38h-5.48Z"/>
      <path class="st2" d="M677.53,395.37c-1,.59-2.4.89-4.17.89-1.51,0-2.7-.42-3.59-1.27-.89-.84-1.33-2.22-1.33-4.14-1.6,1.92-3.46,3.3-5.58,4.14s-4.41,1.27-6.88,1.27c-1.6,0-3.11-.18-4.55-.55-1.44-.36-2.68-.93-3.73-1.71-1.05-.78-1.88-1.79-2.5-3.04-.62-1.25-.92-2.77-.92-4.55,0-2.01.34-3.65,1.03-4.93.68-1.28,1.58-2.32,2.7-3.11,1.12-.8,2.4-1.4,3.83-1.81,1.44-.41,2.91-.75,4.41-1.03,1.6-.32,3.11-.56,4.55-.72,1.44-.16,2.7-.39,3.8-.68,1.1-.3,1.96-.73,2.6-1.3.64-.57.96-1.4.96-2.5,0-1.28-.24-2.3-.72-3.08-.48-.78-1.1-1.37-1.85-1.78-.75-.41-1.6-.68-2.53-.82-.94-.14-1.86-.21-2.77-.21-2.46,0-4.52.47-6.16,1.4-1.64.94-2.53,2.7-2.67,5.3h-5.82c.09-2.19.55-4.04,1.37-5.54s1.92-2.73,3.28-3.66c1.37-.93,2.93-1.61,4.69-2.02,1.76-.41,3.64-.62,5.65-.62,1.6,0,3.18.11,4.76.34,1.57.23,3,.69,4.28,1.4,1.28.71,2.3,1.7,3.08,2.97.77,1.27,1.16,2.94,1.16,4.98v18.17c0,1.37.08,2.37.24,3,.16.64.7.96,1.61.96.5,0,1.1-.09,1.78-.27v4.52ZM668.09,377.24c-.73.54-1.69.94-2.87,1.19-1.19.25-2.43.45-3.73.61-1.3.16-2.61.34-3.94.55-1.32.2-2.51.53-3.56.99-1.05.45-1.91,1.1-2.57,1.94-.66.84-.99,1.99-.99,3.44,0,.95.19,1.76.58,2.42.39.66.89,1.19,1.51,1.6.62.41,1.33.7,2.16.89.82.18,1.69.27,2.6.27,1.92,0,3.56-.26,4.93-.78,1.37-.52,2.49-1.18,3.35-1.97.87-.79,1.51-1.66,1.92-2.59.41-.93.62-1.81.62-2.62v-5.93Z"/>
      <path class="st2" d="M689.1,346.64v48.87h-5.82v-48.87h5.82Z"/>
      <path class="st2" d="M698.48,353.76v-7.12h5.82v7.12h-5.82ZM704.29,360.13v35.38h-5.82v-35.38h5.82Z"/>
      <path class="st2" d="M744.67,395.37c-1,.59-2.4.89-4.17.89-1.51,0-2.7-.42-3.59-1.27-.89-.84-1.33-2.22-1.33-4.14-1.6,1.92-3.46,3.3-5.58,4.14s-4.41,1.27-6.88,1.27c-1.6,0-3.11-.18-4.55-.55-1.44-.36-2.68-.93-3.73-1.71-1.05-.78-1.88-1.79-2.5-3.04-.62-1.25-.92-2.77-.92-4.55,0-2.01.34-3.65,1.03-4.93.68-1.28,1.58-2.32,2.7-3.11,1.12-.8,2.4-1.4,3.83-1.81,1.44-.41,2.91-.75,4.41-1.03,1.6-.32,3.11-.56,4.55-.72,1.44-.16,2.7-.39,3.8-.68,1.1-.3,1.96-.73,2.6-1.3.64-.57.96-1.4.96-2.5,0-1.28-.24-2.3-.72-3.08-.48-.78-1.1-1.37-1.85-1.78-.75-.41-1.6-.68-2.53-.82-.94-.14-1.86-.21-2.77-.21-2.46,0-4.52.47-6.16,1.4-1.64.94-2.53,2.7-2.67,5.3h-5.82c.09-2.19.55-4.04,1.37-5.54s1.92-2.73,3.28-3.66c1.37-.93,2.93-1.61,4.69-2.02,1.76-.41,3.64-.62,5.65-.62,1.6,0,3.18.11,4.76.34,1.57.23,3,.69,4.28,1.4,1.28.71,2.3,1.7,3.08,2.97.77,1.27,1.16,2.94,1.16,4.98v18.17c0,1.37.08,2.37.24,3,.16.64.7.96,1.61.96.5,0,1.1-.09,1.78-.27v4.52ZM735.23,377.24c-.73.54-1.69.94-2.87,1.19-1.19.25-2.43.45-3.73.61-1.3.16-2.61.34-3.94.55-1.32.2-2.51.53-3.56.99-1.05.45-1.91,1.1-2.57,1.94-.66.84-.99,1.99-.99,3.44,0,.95.19,1.76.58,2.42.39.66.89,1.19,1.51,1.6.62.41,1.33.7,2.16.89.82.18,1.69.27,2.6.27,1.92,0,3.56-.26,4.93-.78,1.37-.52,2.49-1.18,3.35-1.97.87-.79,1.51-1.66,1.92-2.59.41-.93.62-1.81.62-2.62v-5.93Z"/>
      <path class="st2" d="M775.88,395.51v-4.79h-.14c-.96,1.96-2.46,3.38-4.52,4.24s-4.31,1.3-6.78,1.3c-2.74,0-5.12-.5-7.15-1.51-2.03-1-3.72-2.35-5.06-4.04-1.35-1.69-2.36-3.65-3.05-5.89-.68-2.24-1.03-4.61-1.03-7.12s.33-4.88.99-7.12c.66-2.24,1.67-4.19,3.01-5.85,1.35-1.67,3.03-2.99,5.06-3.97,2.03-.98,4.39-1.47,7.08-1.47.91,0,1.89.09,2.94.27,1.05.18,2.1.49,3.15.92,1.05.43,2.04,1,2.98,1.71.93.71,1.72,1.59,2.36,2.63h.14v-18.21h5.82v48.87h-5.82ZM754.97,382.95c.43,1.57,1.1,2.98,1.98,4.21.89,1.23,2.03,2.21,3.42,2.94,1.39.73,3.02,1.1,4.89,1.1s3.63-.39,5-1.16c1.37-.78,2.49-1.79,3.35-3.04.87-1.25,1.49-2.68,1.88-4.28.39-1.6.58-3.22.58-4.86,0-1.73-.21-3.41-.62-5.03-.41-1.62-1.06-3.05-1.95-4.28-.89-1.23-2.04-2.22-3.46-2.98-1.42-.75-3.13-1.13-5.13-1.13s-3.63.39-5,1.16c-1.37.78-2.46,1.8-3.29,3.08s-1.41,2.74-1.78,4.38c-.37,1.64-.55,3.33-.55,5.06,0,1.64.22,3.25.65,4.83Z"/>
      <path class="st2" d="M789.84,370.56c.73-2.26,1.82-4.22,3.29-5.89,1.46-1.67,3.26-2.98,5.41-3.94,2.14-.96,4.61-1.44,7.39-1.44s5.3.48,7.43,1.44,3.91,2.27,5.37,3.94c1.46,1.67,2.55,3.63,3.29,5.89.73,2.26,1.1,4.69,1.1,7.29s-.37,5.02-1.1,7.25c-.73,2.24-1.83,4.19-3.29,5.85-1.46,1.67-3.25,2.97-5.37,3.9s-4.6,1.4-7.43,1.4-5.25-.47-7.39-1.4c-2.15-.93-3.95-2.23-5.41-3.9-1.46-1.67-2.56-3.62-3.29-5.85-.73-2.23-1.1-4.65-1.1-7.25s.36-5.03,1.1-7.29ZM795.76,383.57c.57,1.67,1.36,3.06,2.36,4.17,1,1.12,2.18,1.97,3.52,2.57,1.35.59,2.77.89,4.28.89s2.93-.3,4.28-.89c1.35-.59,2.52-1.45,3.52-2.57,1-1.12,1.79-2.51,2.36-4.17.57-1.67.86-3.57.86-5.71s-.29-4.05-.86-5.71c-.57-1.67-1.36-3.07-2.36-4.21-1-1.14-2.18-2.01-3.52-2.6-1.35-.59-2.77-.89-4.28-.89s-2.93.3-4.28.89c-1.35.59-2.52,1.46-3.52,2.6-1,1.14-1.79,2.54-2.36,4.21-.57,1.67-.86,3.57-.86,5.71s.28,4.05.86,5.71Z"/>
      <path class="st2" d="M874.02,393.25c-2.65,2.01-5.98,3.01-9.99,3.01-2.83,0-5.28-.46-7.36-1.37-2.08-.91-3.82-2.19-5.24-3.83-1.42-1.64-2.48-3.6-3.18-5.89-.71-2.28-1.11-4.77-1.2-7.46,0-2.69.41-5.16,1.23-7.39s1.97-4.17,3.46-5.82c1.48-1.64,3.24-2.92,5.27-3.83,2.03-.91,4.25-1.37,6.67-1.37,3.15,0,5.76.65,7.84,1.95,2.08,1.3,3.74,2.95,5,4.96s2.12,4.2,2.6,6.57.67,4.63.58,6.78h-26.49c-.05,1.55.14,3.02.55,4.41.41,1.39,1.07,2.62,1.98,3.7.91,1.07,2.08,1.93,3.49,2.57,1.41.64,3.08.96,5,.96,2.46,0,4.48-.57,6.06-1.71s2.61-2.88,3.11-5.2h5.75c-.78,3.97-2.49,6.96-5.13,8.97ZM872.62,370.53c-.53-1.23-1.23-2.29-2.12-3.18-.89-.89-1.94-1.6-3.15-2.12-1.21-.52-2.54-.79-4-.79s-2.86.26-4.07.79c-1.21.53-2.25,1.24-3.11,2.16-.87.91-1.55,1.97-2.05,3.18-.5,1.21-.8,2.5-.89,3.87h20.33c-.09-1.37-.4-2.67-.92-3.9Z"/>
      <path class="st2" d="M891.2,360.13v5.61h.14c2.42-4.29,6.25-6.43,11.5-6.43,2.33,0,4.27.32,5.82.96,1.55.64,2.81,1.53,3.76,2.67.96,1.14,1.63,2.5,2.02,4.07.39,1.57.58,3.32.58,5.24v23.27h-5.82v-23.95c0-2.19-.64-3.92-1.92-5.2s-3.04-1.92-5.27-1.92c-1.78,0-3.32.27-4.62.82-1.3.55-2.38,1.32-3.25,2.33-.87,1-1.52,2.18-1.95,3.53-.43,1.35-.65,2.82-.65,4.41v19.98h-5.82v-35.38h5.48Z"/>
      <path class="st2" d="M948.28,360.13v5.2h.14c2.64-4.01,6.46-6.02,11.43-6.02,2.19,0,4.17.46,5.95,1.37,1.78.91,3.03,2.46,3.76,4.65,1.19-1.92,2.75-3.4,4.69-4.45,1.94-1.05,4.07-1.57,6.4-1.57,1.78,0,3.39.2,4.83.58,1.44.39,2.67.99,3.7,1.81,1.03.82,1.82,1.88,2.39,3.18s.86,2.86.86,4.69v25.94h-5.82v-23.2c0-1.09-.09-2.12-.27-3.08-.18-.96-.53-1.79-1.03-2.5-.5-.71-1.2-1.27-2.09-1.68-.89-.41-2.04-.62-3.46-.62-2.88,0-5.13.82-6.78,2.46-1.64,1.64-2.46,3.83-2.46,6.57v22.04h-5.82v-23.2c0-1.14-.1-2.19-.31-3.15s-.56-1.79-1.06-2.5c-.5-.71-1.18-1.25-2.02-1.64-.84-.39-1.93-.58-3.25-.58-1.69,0-3.14.34-4.35,1.03-1.21.68-2.19,1.51-2.94,2.46-.75.96-1.3,1.95-1.64,2.98-.34,1.03-.51,1.88-.51,2.57v22.04h-5.82v-35.38h5.48Z"/>
      <path class="st2" d="M1000.36,370.56c.73-2.26,1.82-4.22,3.29-5.89,1.46-1.67,3.26-2.98,5.41-3.94,2.14-.96,4.61-1.44,7.39-1.44s5.3.48,7.43,1.44c2.12.96,3.91,2.27,5.37,3.94,1.46,1.67,2.55,3.63,3.29,5.89.73,2.26,1.09,4.69,1.09,7.29s-.37,5.02-1.09,7.25c-.73,2.24-1.83,4.19-3.29,5.85-1.46,1.67-3.25,2.97-5.37,3.9-2.12.93-4.6,1.4-7.43,1.4s-5.25-.47-7.39-1.4c-2.15-.93-3.95-2.23-5.41-3.9-1.46-1.67-2.56-3.62-3.29-5.85-.73-2.23-1.09-4.65-1.09-7.25s.36-5.03,1.09-7.29ZM1006.28,383.57c.57,1.67,1.36,3.06,2.36,4.17s2.18,1.97,3.53,2.57c1.34.59,2.77.89,4.28.89s2.93-.3,4.28-.89c1.35-.59,2.52-1.45,3.52-2.57,1-1.12,1.79-2.51,2.36-4.17.57-1.67.86-3.57.86-5.71s-.29-4.05-.86-5.71c-.57-1.67-1.36-3.07-2.36-4.21-1-1.14-2.18-2.01-3.52-2.6-1.35-.59-2.77-.89-4.28-.89s-2.93.3-4.28.89c-1.35.59-2.52,1.46-3.53,2.6s-1.79,2.54-2.36,4.21c-.57,1.67-.86,3.57-.86,5.71s.29,4.05.86,5.71Z"/>
      <path class="st2" d="M1050.18,395.51l-13.14-35.38h6.5l9.92,29.5h.14l9.65-29.5h6.09l-12.93,35.38h-6.23Z"/>
      <path class="st2" d="M1075.03,353.76v-7.12h5.82v7.12h-5.82ZM1080.84,360.13v35.38h-5.82v-35.38h5.82Z"/>
      <path class="st2" d="M1095.35,360.13v5.2h.14c2.65-4.01,6.46-6.02,11.43-6.02,2.19,0,4.17.46,5.95,1.37,1.78.91,3.03,2.46,3.76,4.65,1.19-1.92,2.75-3.4,4.69-4.45,1.94-1.05,4.07-1.57,6.4-1.57,1.78,0,3.39.2,4.83.58,1.44.39,2.67.99,3.7,1.81s1.83,1.88,2.4,3.18.86,2.86.86,4.69v25.94h-5.82v-23.2c0-1.09-.09-2.12-.27-3.08-.18-.96-.53-1.79-1.03-2.5-.5-.71-1.2-1.27-2.09-1.68-.89-.41-2.04-.62-3.46-.62-2.87,0-5.13.82-6.78,2.46-1.64,1.64-2.46,3.83-2.46,6.57v22.04h-5.82v-23.2c0-1.14-.1-2.19-.31-3.15-.21-.96-.56-1.79-1.06-2.5-.5-.71-1.17-1.25-2.02-1.64-.85-.39-1.93-.58-3.25-.58-1.69,0-3.14.34-4.35,1.03s-2.19,1.51-2.94,2.46-1.3,1.95-1.64,2.98c-.34,1.03-.51,1.88-.51,2.57v22.04h-5.82v-35.38h5.48Z"/>
      <path class="st2" d="M1148.6,353.76v-7.12h5.82v7.12h-5.82ZM1154.42,360.13v35.38h-5.82v-35.38h5.82Z"/>
      <path class="st2" d="M1188.5,393.25c-2.65,2.01-5.98,3.01-9.99,3.01-2.83,0-5.28-.46-7.36-1.37s-3.82-2.19-5.24-3.83c-1.42-1.64-2.48-3.6-3.18-5.89-.71-2.28-1.11-4.77-1.2-7.46,0-2.69.41-5.16,1.23-7.39s1.97-4.17,3.46-5.82,3.24-2.92,5.27-3.83c2.03-.91,4.25-1.37,6.67-1.37,3.15,0,5.76.65,7.84,1.95,2.08,1.3,3.74,2.95,5,4.96,1.25,2.01,2.12,4.2,2.6,6.57s.67,4.63.58,6.78h-26.49c-.05,1.55.14,3.02.55,4.41.41,1.39,1.07,2.62,1.98,3.7.91,1.07,2.08,1.93,3.49,2.57s3.08.96,5,.96c2.46,0,4.48-.57,6.06-1.71s2.61-2.88,3.12-5.2h5.75c-.78,3.97-2.49,6.96-5.13,8.97ZM1187.1,370.53c-.53-1.23-1.23-2.29-2.12-3.18-.89-.89-1.94-1.6-3.15-2.12-1.21-.52-2.54-.79-4-.79s-2.86.26-4.07.79c-1.21.53-2.25,1.24-3.11,2.16-.87.91-1.55,1.97-2.05,3.18-.5,1.21-.8,2.5-.89,3.87h20.33c-.09-1.37-.4-2.67-.92-3.9Z"/>
      <path class="st2" d="M1205.68,360.13v5.61h.14c2.42-4.29,6.25-6.43,11.5-6.43,2.33,0,4.27.32,5.82.96,1.55.64,2.81,1.53,3.76,2.67.96,1.14,1.63,2.5,2.02,4.07s.58,3.32.58,5.24v23.27h-5.82v-23.95c0-2.19-.64-3.92-1.92-5.2-1.28-1.28-3.04-1.92-5.27-1.92-1.78,0-3.32.27-4.62.82-1.3.55-2.38,1.32-3.25,2.33-.87,1-1.52,2.18-1.95,3.53s-.65,2.82-.65,4.41v19.98h-5.82v-35.38h5.47Z"/>
      <path class="st2" d="M1253.38,360.13v5.13h-7.05v21.97c0,.68.06,1.23.17,1.64.11.41.33.73.65.96.32.23.76.38,1.33.45s1.31.1,2.22.1h2.67v5.13h-4.45c-1.51,0-2.79-.1-3.87-.31-1.07-.21-1.94-.58-2.6-1.13-.66-.55-1.15-1.32-1.47-2.33-.32-1-.48-2.33-.48-3.97v-22.52h-6.02v-5.13h6.02v-10.61h5.82v10.61h7.05Z"/>
      <path class="st2" d="M1258.99,370.56c.73-2.26,1.82-4.22,3.29-5.89,1.46-1.67,3.26-2.98,5.41-3.94,2.14-.96,4.61-1.44,7.39-1.44s5.3.48,7.43,1.44c2.12.96,3.91,2.27,5.37,3.94,1.46,1.67,2.55,3.63,3.29,5.89.73,2.26,1.1,4.69,1.1,7.29s-.37,5.02-1.1,7.25c-.73,2.24-1.83,4.19-3.29,5.85-1.46,1.67-3.25,2.97-5.37,3.9-2.12.93-4.6,1.4-7.43,1.4s-5.25-.47-7.39-1.4c-2.15-.93-3.95-2.23-5.41-3.9-1.46-1.67-2.56-3.62-3.29-5.85-.73-2.23-1.1-4.65-1.1-7.25s.37-5.03,1.1-7.29ZM1264.91,383.57c.57,1.67,1.36,3.06,2.36,4.17,1,1.12,2.18,1.97,3.52,2.57s2.77.89,4.28.89,2.93-.3,4.28-.89c1.34-.59,2.52-1.45,3.52-2.57s1.79-2.51,2.36-4.17c.57-1.67.86-3.57.86-5.71s-.29-4.05-.86-5.71c-.57-1.67-1.36-3.07-2.36-4.21s-2.18-2.01-3.52-2.6c-1.35-.59-2.77-.89-4.28-.89s-2.93.3-4.28.89-2.52,1.46-3.52,2.6c-1,1.14-1.79,2.54-2.36,4.21-.57,1.67-.86,3.57-.86,5.71s.28,4.05.86,5.71Z"/>
    </g>
  </g>
  <g>
    <path class="st2" d="M618.86,275.06c-12.36,0-23.64-3.17-33.82-9.53s-18.27-14.88-24.27-25.58c-6-10.71-9.01-22.58-9.01-35.64,0-9.75,1.75-18.92,5.23-27.53,3.47-8.62,8.25-16.2,14.36-22.72,6.08-6.52,13.17-11.66,21.27-15.4,8.09-3.75,16.83-5.62,26.24-5.62,11.83,0,21.06,2.22,27.67,6.65,6.61,4.45,11.75,10.31,15.4,17.62v-21.4h34.99v135.74h-34.2v-22.18c-3.65,7.66-8.83,13.83-15.53,18.52-6.7,4.7-16.14,7.05-28.32,7.05v.02ZM624.59,243.22c7.84,0,14.58-1.78,20.23-5.35,5.66-3.57,10.06-8.31,13.19-14.23,3.13-5.91,4.7-12.36,4.7-19.32s-1.57-13.66-4.7-19.58c-3.13-5.91-7.53-10.7-13.19-14.36-5.65-3.66-12.39-5.48-20.23-5.48s-14.05,1.79-19.71,5.35c-5.66,3.57-10.05,8.31-13.17,14.23-3.14,5.93-4.71,12.45-4.71,19.58s1.57,13.19,4.71,19.19c3.13,6,7.51,10.83,13.17,14.49s12.23,5.48,19.71,5.48h0Z"/>
    <path class="st2" d="M768.17,274.8c-9.75,0-18.54-2.25-26.38-6.79-7.82-4.52-14-11-18.52-19.44-4.53-8.45-6.79-18.32-6.79-29.62v-83.02h35.24v74.39c0,11.66,2.34,20.2,7.04,25.59,4.7,5.39,11.4,8.09,20.11,8.09,7.48,0,14.05-2.7,19.71-8.09,5.65-5.39,8.48-13.93,8.48-25.59v-74.39h35.25v135.74h-34.2v-20.36c-3.3,7.82-8.14,13.71-14.49,17.62-6.36,3.91-14.83,5.87-25.44,5.87h0Z"/>
    <path class="st2" d="M914.62,271.67c-13.4,0-23.67-3.3-30.81-9.91-7.13-6.62-10.7-17.32-10.7-32.11v-63.71h-19.06v-30.01h19.06v-27.42l35.24-3.66v31.08h28.72v30.01h-28.72v61.87c0,8.36,3.66,12.54,10.97,12.54h14.63v31.33h-19.33Z"/>
    <path class="st2" d="M1012.26,275.06c-13.93,0-26.36-3.22-37.33-9.66-10.97-6.43-19.55-15.01-25.71-25.71-6.18-10.7-9.28-22.58-9.28-35.64s3.1-24.97,9.28-35.76c6.16-10.79,14.74-19.4,25.71-25.84,10.97-6.43,23.4-9.66,37.33-9.66s26.59,3.23,37.46,9.66c10.88,6.45,19.4,15.06,25.58,25.84,6.18,10.79,9.28,22.72,9.28,35.76s-3.1,24.94-9.28,35.64-14.7,19.28-25.58,25.71c-10.88,6.45-23.37,9.66-37.46,9.66h0ZM1012.26,242.95c7.48,0,14-1.78,19.58-5.35,5.57-3.56,9.88-8.31,12.92-14.23,3.05-5.91,4.56-12.36,4.56-19.32s-1.51-13.65-4.56-19.58c-3.04-5.91-7.35-10.65-12.92-14.23-5.57-3.56-12.09-5.35-19.58-5.35s-14.02,1.79-19.58,5.35c-5.57,3.57-9.88,8.31-12.92,14.23-3.05,5.93-4.58,12.45-4.58,19.58s1.53,13.41,4.58,19.32c3.04,5.91,7.35,10.67,12.92,14.23,5.56,3.57,12.09,5.35,19.58,5.35h0Z"/>
    <path class="st2" d="M1100.24,271.67V81.1h35.24v190.57h-35.24Z"/>
    <path class="st2" d="M1221.36,275.06c-13.93,0-26.2-3.22-36.81-9.66-10.61-6.43-18.84-15.01-24.67-25.71-5.82-10.7-8.74-22.58-8.74-35.64s3.05-25.01,9.14-35.89,14.4-19.53,24.93-25.98c10.54-6.43,22.58-9.65,36.16-9.65s25.53,3.22,35.89,9.65c10.36,6.45,18.43,15.1,24.27,25.98,5.84,10.88,8.74,22.85,8.74,35.89,0,1.93-.09,3.93-.27,6.02-.18,2.09-.41,4.27-.77,6.52h-101.54c1.91,8,5.78,14.54,11.6,19.58,5.84,5.05,13.19,7.57,22.07,7.57,7.66,0,14.32-1.73,19.98-5.22,5.65-3.48,10.05-7.84,13.17-13.06l27.4,20.63c-5.39,8.52-13.47,15.49-24.26,20.88-10.8,5.39-22.9,8.09-36.29,8.09h0ZM1220.84,162.81c-8.36,0-15.5,2.52-21.41,7.57s-9.83,11.66-11.74,19.84h67.09c-1.91-7.48-5.87-13.93-11.88-19.32-6-5.39-13.35-8.09-22.05-8.09h0Z"/>
    <path class="st2" d="M1365.72,275.06c-12.36,0-23.65-3.17-33.82-9.53-10.2-6.36-18.29-14.88-24.27-25.58-6.02-10.71-9.01-22.58-9.01-35.64,0-9.75,1.75-18.92,5.22-27.53,3.47-8.62,8.27-16.2,14.37-22.72,6.08-6.52,13.16-11.66,21.25-15.4,8.09-3.75,16.83-5.62,26.26-5.62,11.83,0,21.04,2.22,27.65,6.65,6.61,4.45,11.77,10.31,15.41,17.62v-21.4h34.97v135.74h-34.2v-22.18c-3.65,7.66-8.83,13.83-15.53,18.52-6.7,4.7-16.12,7.05-28.3,7.05v.02ZM1371.44,243.22c7.85,0,14.58-1.78,20.24-5.35s10.05-8.31,13.19-14.23c3.11-5.91,4.68-12.36,4.68-19.32s-1.57-13.66-4.68-19.58c-3.14-5.91-7.53-10.7-13.19-14.36-5.66-3.66-12.39-5.48-20.24-5.48s-14.05,1.79-19.71,5.35c-5.66,3.57-10.05,8.31-13.16,14.23-3.14,5.93-4.71,12.45-4.71,19.58s1.57,13.19,4.71,19.19c3.11,6,7.5,10.83,13.16,14.49s12.24,5.48,19.71,5.48h0Z"/>
    <path class="st2" d="M1511.13,275.06c-22.79,0-41.61-7.91-56.4-23.75l23.77-21.67c9.93,11.14,20.54,16.7,31.83,16.7,6.11,0,10.76-1.35,13.99-4.05,3.2-2.7,4.83-6.05,4.83-10.05,0-2.43-.56-4.52-1.72-6.27-1.13-1.73-3.47-3.39-7.02-4.96-3.59-1.56-8.92-3.13-16.06-4.7-12.18-2.95-21.25-6.61-27.15-10.95-5.93-4.36-9.84-9.23-11.77-14.63-1.9-5.39-2.85-10.97-2.85-16.7,0-11.84,4.48-21.71,13.43-29.64,8.98-7.91,21.37-11.87,37.2-11.87,10.97,0,20.36,1.64,28.22,4.95,7.82,3.32,15.2,9.5,22.17,18.54l-25.58,19.58c-3.29-5.22-6.99-8.95-11.08-11.22s-8.42-3.39-12.92-3.39c-4.89,0-8.92.95-12.15,2.87-3.23,1.91-4.83,4.95-4.83,9.13,0,2.27,1.07,4.49,3.14,6.65,2.07,2.18,7.14,4.31,15.15,6.4,13.22,3.3,23.33,7.17,30.29,11.62,6.94,4.43,11.74,9.44,14.34,15.01,2.61,5.57,3.91,11.74,3.91,18.54,0,8.34-2.31,15.83-6.91,22.44-4.62,6.62-10.88,11.84-18.79,15.66-7.94,3.84-16.95,5.75-27.03,5.75h0Z"/>
    <path class="st2" d="M1642.69,275.06c-13.93,0-26.2-3.22-36.81-9.66-10.61-6.43-18.85-15.01-24.69-25.71-5.81-10.7-8.74-22.58-8.74-35.64s3.05-25.01,9.16-35.89c6.08-10.88,14.4-19.53,24.93-25.98,10.52-6.43,22.58-9.65,36.16-9.65s25.52,3.22,35.89,9.65c10.34,6.45,18.43,15.1,24.27,25.98,5.84,10.88,8.74,22.85,8.74,35.89,0,1.93-.09,3.93-.27,6.02-.18,2.09-.41,4.27-.77,6.52h-101.54c1.9,8,5.78,14.54,11.59,19.58,5.84,5.05,13.19,7.57,22.08,7.57,7.65,0,14.32-1.73,19.98-5.22,5.63-3.48,10.05-7.84,13.16-13.06l27.42,20.63c-5.39,8.52-13.49,15.49-24.27,20.88-10.79,5.39-22.88,8.09-36.28,8.09h-.01ZM1642.16,162.81c-8.36,0-15.5,2.52-21.4,7.57-5.93,5.05-9.84,11.66-11.74,19.84h67.07c-1.9-7.48-5.87-13.93-11.88-19.32-5.99-5.39-13.34-8.09-22.05-8.09h0Z"/>
  </g>
  <path class="st2" d="M1719.09,260.1c1.26,0,2.48.32,3.68.97,1.2.64,2.13,1.57,2.8,2.77.67,1.2,1,2.45,1,3.75s-.33,2.53-.99,3.72-1.58,2.11-2.77,2.77c-1.19.66-2.43.99-3.72.99s-2.54-.33-3.72-.99-2.11-1.58-2.77-2.77-.99-2.43-.99-3.72.34-2.55,1.01-3.75,1.6-2.12,2.8-2.77c1.2-.64,2.42-.97,3.68-.97h-.01ZM1719.09,261.34c-1.05,0-2.07.27-3.07.81-.99.54-1.77,1.31-2.33,2.31-.56,1-.84,2.04-.84,3.13s.28,2.11.83,3.1c.55.99,1.32,1.76,2.32,2.31.99.55,2.03.83,3.1.83s2.11-.28,3.1-.83,1.76-1.32,2.31-2.31.82-2.02.82-3.1-.28-2.13-.84-3.13c-.56-1-1.34-1.77-2.33-2.31-1-.54-2.02-.81-3.06-.81h-.01ZM1715.81,271.72v-8.05h2.77c.95,0,1.63.07,2.05.22s.76.41,1.01.78.38.76.38,1.18c0,.59-.21,1.1-.63,1.54s-.98.68-1.67.73c.28.12.51.26.68.43.32.32.72.85,1.19,1.6l.98,1.58h-1.59l-.71-1.27c-.56-1-1.01-1.62-1.36-1.87-.24-.19-.58-.28-1.04-.28h-.76v3.42h-1.3ZM1717.1,267.19h1.58c.75,0,1.27-.11,1.54-.34.27-.22.41-.52.41-.89,0-.24-.07-.45-.2-.64s-.32-.33-.55-.42c-.23-.09-.67-.14-1.3-.14h-1.48v2.43h0Z"/>
  <g>
    <path class="st2" d="M373.78,194.63h-70.44v22.28h69.73c52.04,0,92.81-39.5,92.81-89.93s-41.63-92.81-92.81-92.81c-43.5,0-70.55,30.57-107.98,72.87-3.84,4.35-7.82,8.82-11.88,13.36h99.94v-22.47h-43.33c10.78-23.7,34.62-40.24,62.31-40.24h1.66c37.75,0,68.47,30.72,68.47,68.47s-30.72,68.47-68.47,68.47h-.01Z"/>
    <path class="st2" d="M373.78,0h-1.66c-43.8,0-82.37,22.32-104.99,56.2V11.93h-22.16v97.98c3.51-3.93,6.93-7.8,10.27-11.58,38.22-43.19,68.4-77.31,117.82-77.31,58.42,0,105.95,47.53,105.95,105.95s-46.54,103.07-105.95,103.07h-69.73v108.25h22.27v-85.97h48.18c69.68,0,126.16-56.49,126.16-126.16h0c0-69.68-56.48-126.16-126.16-126.16Z"/>
    <polygon class="st2" points="353.14 133.55 231.83 133.55 231.83 11.93 209.44 11.93 209.44 97.93 209.44 155.63 267.14 155.63 353.14 155.63 353.14 133.55"/>
  </g>
</svg>