<svg width="160" height="83" viewBox="0 0 160 83" fill="none" xmlns="http://www.w3.org/2000/svg">
<path d="M68.8005 79.0228H62.8179C62.0179 79.0228 61.357 79.0228 60.7309 78.8844C60.1048 78.7461 59.5831 78.504 59.1657 78.1582C58.7483 77.8124 58.47 77.3282 58.3309 76.8094C58.2613 76.5328 58.2265 76.2561 58.1918 75.9449C58.157 75.6336 58.157 75.3224 58.157 74.9765C58.157 73.3857 58.157 71.7949 58.157 70.204C56.6265 70.204 55.0961 70.204 53.6005 70.204C53.6005 71.4836 53.6005 72.7632 53.6005 74.0428C53.6005 74.5961 53.6005 75.0803 53.6352 75.5644C53.67 76.0486 53.7396 76.4982 53.8787 76.9132C54.1222 77.7778 54.5744 78.4694 55.27 79.0574C55.9657 79.6107 56.8352 79.9911 57.8787 80.1986C58.4005 80.3024 58.957 80.3715 59.5483 80.3715C60.1396 80.4061 60.7309 80.4061 61.3918 80.4061C65.3918 80.4061 69.3918 80.4061 73.4266 80.4061V70.204H68.8352L68.8005 79.0228ZM48.6265 75.0457V74.9074C48.9048 74.8382 49.1483 74.7344 49.357 74.6307C49.5657 74.4924 49.7744 74.354 49.9135 74.1811C50.2265 73.8353 50.4352 73.3511 50.4352 72.694C50.4352 72.1753 50.2961 71.6911 50.0526 71.3107C49.8092 70.9303 49.4613 70.6536 49.0439 70.4807C48.6265 70.3078 48.1744 70.2386 47.7222 70.204C47.27 70.1694 46.7831 70.1694 46.47 70.1694C41.2178 70.1694 35.9309 70.1694 30.6787 70.1694V80.3715H47.2005C47.4092 80.3715 47.8613 80.3715 48.3135 80.3024C48.8005 80.2332 49.2874 80.1294 49.7396 79.9219C50.1918 79.7144 50.5396 79.4032 50.8179 78.9882C51.0613 78.5732 51.2005 78.089 51.2352 77.5703C51.27 76.8786 51.0613 76.2215 50.5396 75.7374C49.9831 75.2878 49.3222 75.0803 48.6265 75.0457ZM35.2352 71.5874H43.7918C44.1396 71.5874 44.4178 71.5874 44.6961 71.6219C44.9396 71.6565 45.1831 71.7257 45.357 71.864C45.5309 72.0024 45.67 72.1407 45.7396 72.3482C45.8092 72.5557 45.8787 72.7632 45.8787 72.9707C45.8787 73.1782 45.8439 73.4203 45.7396 73.5932C45.6352 73.8007 45.5309 73.9736 45.357 74.0774C45.1831 74.2157 44.9744 74.2849 44.6961 74.3194C44.4178 74.354 44.1396 74.354 43.7918 74.354H35.2352V71.5874ZM46.3309 78.1236C46.2265 78.3657 46.0874 78.5386 45.8787 78.6769C45.67 78.8153 45.4265 78.919 45.1135 78.9536C44.8005 78.9882 44.4526 79.0228 44.0352 79.0228H35.27V75.8065H44.0352C44.4526 75.8065 44.8005 75.8065 45.1135 75.8411C45.4265 75.8757 45.67 75.9794 45.8787 76.1178C46.0874 76.2561 46.2265 76.429 46.3309 76.6711C46.4352 76.8786 46.47 77.1553 46.47 77.3974C46.47 77.6394 46.4352 77.8815 46.3309 78.1236ZM76.8005 80.4061H81.3918V70.204H76.8005V80.4061ZM93.7744 79.0228C92.9744 79.0228 92.3135 79.0228 91.6526 78.8844C91.0266 78.7807 90.47 78.5732 90.0526 78.2274C89.6352 77.9161 89.357 77.5011 89.1831 77.0169C89.0092 76.4982 88.9744 75.9794 88.9744 75.3915C88.9744 74.8036 88.9744 73.8353 88.9744 72.9361C88.9744 72.694 88.9744 72.4865 89.0439 72.3136C89.0787 72.1407 89.1483 71.9678 89.2874 71.864C89.3918 71.7603 89.5657 71.6565 89.7396 71.6219C89.9483 71.5874 90.1222 71.5874 90.3657 71.5874H104.279V70.204C98.7831 70.204 93.2874 70.204 87.7918 70.204C87.2005 70.204 86.7483 70.204 86.2961 70.3078C85.8439 70.4115 85.4613 70.5844 85.1483 70.8265C84.8353 71.0686 84.6613 71.4144 84.5222 71.7949C84.4179 72.1753 84.3831 72.5903 84.3831 73.0744C84.3831 73.6969 84.3831 74.2157 84.3831 74.6999C84.3831 75.184 84.4179 75.6336 84.4526 76.0832C84.5222 76.5328 84.5918 76.9132 84.7309 77.2936C85.0092 78.0544 85.4613 78.7115 86.157 79.2303C86.8526 79.749 87.7222 80.0603 88.7309 80.2678C89.2526 80.3715 89.7744 80.4061 90.3657 80.4407C90.957 80.4753 91.5483 80.4753 92.2092 80.4753C96.2787 80.4753 100.348 80.4753 104.383 80.4753C104.383 80.0257 104.383 79.5415 104.383 79.0919L93.7744 79.0228ZM116.279 74.769V74.6307C116.835 74.4232 117.531 74.1465 118.366 73.8353C119.2 73.524 120.14 73.1436 121.148 72.7632C123.096 72.0024 125.67 71.0686 127.479 70.4115V70.204H123.096C119.966 71.449 116.835 72.7286 113.67 73.9736H111.687V70.204H107.061V80.4061H111.687V75.9794H113.496C114.296 76.3944 115.757 77.1207 116.94 77.7432C118.261 78.4003 119.827 79.2303 120.766 79.7144C121.009 79.8182 121.218 79.9565 121.461 80.0603C121.705 80.164 121.983 80.2332 122.261 80.3024C122.853 80.4061 123.444 80.4061 124.174 80.4061H129.357C129.357 80.2678 129.357 80.164 129.357 80.0257C125.009 78.2965 120.627 76.5328 116.279 74.769Z" fill="#231F20"/>
<path d="M65.9135 3.14704C61.7048 2.38621 56.9396 2.38621 52.7309 3.14704C52.557 3.18162 52.383 3.21621 52.3135 3.52746C52.8004 6.91662 53.2874 10.3058 53.7744 13.695C57.2526 13.0379 61.3917 13.0379 64.87 13.695C65.357 10.3058 65.8439 6.91662 66.3309 3.52746C66.2613 3.21621 66.0874 3.18162 65.9135 3.14704Z" fill="#231F20"/>
<path d="M64.4525 27.2171C64.3829 26.4563 64.2438 25.7646 63.9655 25.1075C63.6873 24.4504 63.3047 23.8625 62.8177 23.2746C62.3308 22.6867 61.7742 22.1333 61.3221 21.6492C59.1655 19.4704 56.9742 17.2917 54.7482 15.1821C54.6786 15.1129 54.5742 15.0783 54.4699 15.1129C54.3655 15.1475 54.296 15.2167 54.296 15.355C54.1916 18.5021 54.1221 21.58 54.1221 24.7271C54.1221 27.7704 54.1568 31.0904 54.4003 34.0992C54.609 36.7621 54.9221 39.3213 55.4786 41.915C56.2438 45.4771 57.4264 48.9008 58.8525 52.2554H59.7569C61.3221 48.5896 62.5395 44.9583 63.3047 41.085C64.1047 37.1771 64.3482 33.4075 64.4525 29.3958C64.4873 28.7388 64.5221 27.9779 64.4525 27.2171ZM61.6699 32.5775C61.5308 35.69 61.2525 38.4567 60.6264 41.5C60.0699 44.1629 59.2699 46.7913 58.296 49.3504C57.3569 46.8604 56.5916 44.405 56.0351 41.8113C55.5829 39.7017 55.2699 37.6267 55.0612 35.4825C54.8525 33.3383 54.7829 31.1942 54.7134 29.0154C54.6438 26.4563 54.6786 23.6896 54.7134 21.1304C55.9655 22.3408 57.2177 23.5858 58.4351 24.8654C58.9221 25.3496 59.5482 26.0067 60.0003 26.5254C60.5221 27.1133 60.9742 27.7358 61.2525 28.4621C61.496 29.0154 61.6003 29.6033 61.6351 30.2258C61.7047 30.9175 61.7047 31.7821 61.6699 32.5775Z" fill="#231F20"/>
<path d="M53.2531 15.7007C52.8705 12.0003 52.4878 8.29987 52.1052 4.63403C52.0705 4.73778 52.0705 4.77237 52.0705 4.84153C51.8618 9.40653 51.6878 14.352 51.5835 18.917C51.4792 23.3782 51.4444 28.5311 51.6878 32.9924C51.9313 37.592 52.4878 41.569 53.7748 45.9957C54.8531 49.6961 56.3487 53.3965 58.0531 56.8203C58.9226 56.8549 59.7922 56.8549 60.6618 56.8203C62.3661 53.362 63.8618 49.6961 64.94 45.9957C66.227 41.569 66.7835 37.592 67.027 32.9924C67.2705 28.5311 67.2357 23.3782 67.1313 18.917C67.027 14.352 66.8183 9.40653 66.6444 4.84153C66.6444 4.77237 66.6444 4.73778 66.6096 4.63403C66.227 8.29987 65.8444 12.0003 65.4618 15.7007C65.5661 19.0899 65.6357 22.5136 65.6357 25.9028C65.6357 28.6695 65.5661 31.4361 65.3574 34.2028C65.2183 36.2432 64.9748 38.3182 64.627 40.324C64.3835 41.742 64.0705 43.1253 63.6878 44.5086C62.7835 47.8632 61.5313 51.1486 60.1052 54.3303C59.6531 54.3649 59.1661 54.3649 58.6791 54.3303C57.2531 51.1832 56.0009 47.8978 55.0965 44.5432C54.7139 43.1599 54.4009 41.7765 54.1574 40.3932C53.7748 38.3528 53.5661 36.3124 53.3922 34.2374C53.1835 31.4707 53.1139 28.704 53.1139 25.9374C53.0791 22.5482 53.1487 19.1245 53.2531 15.7007Z" fill="#231F20"/>
<path d="M84.6268 13.695C81.1486 13.0379 77.0094 13.0379 73.5312 13.695C73.0442 10.3058 72.5573 6.91663 72.0703 3.52746C72.1399 3.21621 72.3138 3.18162 72.4877 3.14704C76.6964 2.38621 81.4616 2.38621 85.6703 3.14704C85.8442 3.18162 86.0181 3.21621 86.0877 3.52746C85.6007 6.91663 85.1138 10.3058 84.6268 13.695Z" fill="#231F20"/>
<path d="M84.2093 27.2169C84.1398 26.4561 84.0006 25.7644 83.7224 25.1074C83.4441 24.4503 83.0615 23.8624 82.5746 23.2744C82.0876 22.6865 81.5311 22.1332 81.0789 21.649C78.9572 19.4703 76.7659 17.2915 74.505 15.2165C74.4354 15.1474 74.3311 15.1128 74.2267 15.1474C74.1224 15.1819 74.0528 15.2511 74.0528 15.3894C73.9485 18.5365 73.8789 21.6144 73.8789 24.7615C73.8789 27.8049 73.9137 31.1249 74.1572 34.1336C74.3659 36.7965 74.6789 39.3557 75.2354 41.9494C76.0006 45.5115 77.1833 48.9353 78.6093 52.2899H79.5137C81.0789 48.624 82.2963 44.9928 83.0615 41.1194C83.8615 37.2115 84.105 33.4419 84.2093 29.4303C84.2441 28.7386 84.2789 27.9778 84.2093 27.2169ZM81.392 32.5774C81.2528 35.6899 80.9746 38.4565 80.3485 41.4999C79.792 44.1628 78.992 46.7911 78.018 49.3503C77.0789 46.8603 76.3137 44.4049 75.7572 41.8111C75.305 39.7015 74.992 37.6265 74.7833 35.4824C74.5746 33.3382 74.505 31.194 74.4354 29.0153C74.3659 26.4561 74.4006 23.6894 74.4354 21.1303C75.6876 22.3407 76.9398 23.5857 78.1572 24.8653C78.6441 25.3494 79.2702 26.0065 79.7224 26.5253C80.2441 27.1132 80.6963 27.7357 80.9746 28.4619C81.218 29.0153 81.3224 29.6032 81.3572 30.2257C81.4615 30.9174 81.4267 31.7819 81.392 32.5774Z" fill="#231F20"/>
<path d="M72.9747 15.7007C72.5921 12.0003 72.2095 8.29987 71.8269 4.63403C71.7921 4.73778 71.7921 4.77237 71.7921 4.84153C71.5834 9.40653 71.4095 14.352 71.3052 18.917C71.2008 23.3782 71.166 28.5311 71.4095 32.9924C71.653 37.592 72.2095 41.569 73.4965 45.9957C74.5747 49.6961 76.0704 53.3965 77.7747 56.8203C78.6443 56.8549 79.5139 56.8549 80.3834 56.8203C82.0878 53.362 83.5834 49.6961 84.6617 45.9957C85.9487 41.569 86.5052 37.592 86.7487 32.9924C86.9921 28.5311 86.9574 23.3782 86.853 18.917C86.7487 14.352 86.54 9.40653 86.3661 4.84153C86.3661 4.77237 86.366 4.73778 86.3313 4.63403C85.9487 8.29987 85.566 12.0003 85.1834 15.7007C85.2878 19.0899 85.3574 22.5136 85.3574 25.9028C85.3574 28.6695 85.2878 31.4361 85.0791 34.2028C84.94 36.2432 84.6965 38.3182 84.3487 40.324C84.1052 41.742 83.7921 43.1253 83.4095 44.5086C82.5052 47.8632 81.253 51.1486 79.8269 54.3303C79.3747 54.3649 78.8878 54.3649 78.4008 54.3303C76.9747 51.1832 75.7226 47.8978 74.8182 44.5432C74.4356 43.1599 74.1226 41.7765 73.8791 40.3932C73.4965 38.3528 73.2878 36.3124 73.1139 34.2374C72.9052 31.4707 72.8356 28.704 72.8356 25.9374C72.8008 22.5482 72.8704 19.1245 72.9747 15.7007Z" fill="#231F20"/>
<path d="M104.384 13.6949C100.905 13.0378 96.7663 13.0378 93.288 13.6949C92.8011 10.3057 92.3141 6.91657 91.8271 3.5274C91.8967 3.21615 92.0706 3.18157 92.2445 3.14698C96.4532 2.42073 101.218 2.42073 105.427 3.14698C105.601 3.18157 105.775 3.21615 105.845 3.5274C105.358 6.91657 104.871 10.3057 104.384 13.6949Z" fill="#231F20"/>
<path d="M103.965 27.2169C103.896 26.4561 103.757 25.7644 103.478 25.1074C103.2 24.4503 102.817 23.8624 102.33 23.2744C101.843 22.6865 101.287 22.1332 100.835 21.649C98.6782 19.4703 96.4869 17.2915 94.2608 15.2165C94.1913 15.1474 94.0869 15.1128 93.9826 15.1474C93.8782 15.1819 93.8087 15.2511 93.8087 15.3894C93.7043 18.5365 93.6348 21.6144 93.6348 24.7615C93.6348 27.8049 93.6695 31.1249 93.913 34.1336C94.1217 36.7965 94.4348 39.3557 94.9913 41.9494C95.7565 45.5115 96.9391 48.9353 98.3652 52.2899H99.2695C100.835 48.624 102.052 44.9928 102.817 41.1194C103.617 37.2115 103.861 33.4419 103.965 29.4303C104 28.7386 104.035 27.9778 103.965 27.2169ZM101.148 32.5774C101.009 35.6899 100.73 38.4565 100.104 41.4999C99.5478 44.1628 98.7478 46.7911 97.7739 49.3503C96.8348 46.8603 96.0695 44.4049 95.513 41.8111C95.0609 39.7015 94.7478 37.6265 94.5391 35.4824C94.3304 33.3382 94.2608 31.194 94.1913 29.0153C94.1217 26.4561 94.1565 23.6894 94.1913 21.1303C95.4435 22.3407 96.6956 23.5857 97.913 24.8653C98.4 25.3494 99.0261 26.0065 99.4782 26.5253C100 27.1132 100.452 27.7357 100.73 28.4619C100.974 29.0153 101.078 29.6032 101.113 30.2257C101.217 30.9174 101.183 31.7819 101.148 32.5774Z" fill="#231F20"/>
<path d="M92.7306 15.7007C92.348 12.0003 91.9654 8.29987 91.5828 4.63403C91.548 4.73778 91.548 4.77237 91.548 4.84153C91.3393 9.40653 91.1654 14.352 91.061 18.917C90.9567 23.3782 90.9219 28.5311 91.1654 32.9924C91.4089 37.592 91.9654 41.569 93.2523 45.9957C94.3306 49.6961 95.8263 53.3965 97.5306 56.8203C98.4002 56.8549 99.2697 56.8549 100.139 56.8203C101.844 53.362 103.339 49.6961 104.418 45.9957C105.705 41.569 106.261 37.592 106.505 32.9924C106.748 28.5311 106.713 23.3782 106.609 18.917C106.505 14.352 106.331 9.40653 106.122 4.84153C106.122 4.77237 106.122 4.73778 106.087 4.63403C105.705 8.29987 105.322 12.0003 104.939 15.7007C105.044 19.0899 105.113 22.5136 105.113 25.9028C105.113 28.6695 105.044 31.4361 104.835 34.2028C104.696 36.2432 104.452 38.3182 104.105 40.324C103.861 41.742 103.548 43.1253 103.165 44.5086C102.261 47.8632 101.009 51.1486 99.5828 54.3303C99.1306 54.3649 98.6437 54.3649 98.1567 54.3303C96.7306 51.1832 95.4784 47.8978 94.5741 44.5432C94.1915 43.1599 93.8784 41.7765 93.635 40.3932C93.2523 38.3528 93.0436 36.3124 92.8697 34.2374C92.661 31.4707 92.5915 28.704 92.5915 25.9374C92.5567 22.5482 92.6263 19.1245 92.7306 15.7007Z" fill="#231F20"/>
</svg>
