<svg width="160" height="83" viewBox="0 0 160 83" fill="none" xmlns="http://www.w3.org/2000/svg">
<path fill-rule="evenodd" clip-rule="evenodd" d="M36.6953 37.7651H26.817C26.5735 37.7651 26.3996 37.6959 26.3996 37.3501V35.8976C26.3996 35.4826 26.1561 35.2405 25.7735 35.2405H14.4692C14.0518 35.2405 13.8431 35.4826 13.8431 35.863V37.3155C13.8431 37.6267 13.704 37.7305 13.4257 37.7305H6.95614C6.46918 37.7305 6.15614 37.9726 6.01701 38.2838L2.85179 44.4051C2.81701 44.4742 2.78223 44.578 2.78223 44.6817C2.78223 44.9238 2.95614 45.2351 3.37353 45.2351H13.3909C13.704 45.2351 13.8083 45.3734 13.8083 45.6501V47.1026C13.8083 47.5521 14.0518 47.7251 14.4344 47.7251H19.9648H25.704C26.0866 47.7251 26.3301 47.5521 26.3301 47.1026V45.6501C26.3301 45.3388 26.4692 45.2351 26.7474 45.2351H33.0431C33.4605 45.2351 33.7735 45.1313 34.017 44.7163L37.1474 38.6642C37.217 38.5259 37.2518 38.4567 37.2518 38.3184C37.2866 37.9034 36.9387 37.7651 36.6953 37.7651ZM34.1909 40.1859L32.6953 43.0909C32.5909 43.2638 32.417 43.2638 32.3127 43.2638H24.8692C24.5561 43.2638 24.4518 43.4021 24.4518 43.6788V45.3734C24.4518 45.6501 24.3127 45.7884 24.0344 45.7884H19.9996H16.1735C15.8953 45.7884 15.7561 45.6846 15.7561 45.3734V43.6788C15.7561 43.3676 15.617 43.2638 15.3387 43.2638H6.2257C6.01701 43.2638 5.8431 43.1255 5.8431 42.918C5.8431 42.8488 5.8431 42.8142 5.87788 42.7451L7.37353 39.8401C7.4431 39.7363 7.51266 39.6671 7.75614 39.6671H15.3387C15.617 39.6671 15.7561 39.5634 15.7561 39.2521V37.5576C15.7561 37.2463 15.8953 37.1426 16.1735 37.1426H23.9996C24.2779 37.1426 24.417 37.2809 24.417 37.5576V39.2521C24.417 39.5288 24.5561 39.6671 24.8344 39.6671H33.8431C34.1214 39.6671 34.2257 39.8401 34.2257 40.013C34.2257 40.1167 34.2257 40.1513 34.1909 40.1859Z" fill="#231F20"/>
<path fill-rule="evenodd" clip-rule="evenodd" d="M27.5473 36.6584H27.6865L27.8952 37.0042H28.0343L27.7908 36.6584C27.9299 36.6584 28.0343 36.5892 28.0343 36.4509C28.0343 36.278 27.8952 36.2434 27.756 36.2434H27.4082V37.0388H27.5125V36.6584H27.5473ZM27.5473 36.3126H27.756C27.8256 36.3126 27.9299 36.3126 27.9299 36.4163C27.9299 36.4855 27.8952 36.5547 27.7212 36.5547H27.5125V36.3126H27.5473Z" fill="#231F20"/>
<path fill-rule="evenodd" clip-rule="evenodd" d="M27.6869 37.2808C28.0695 37.2808 28.3825 36.9695 28.3825 36.5891C28.3825 36.2087 28.0695 35.8975 27.6869 35.8975C27.3043 35.8975 26.9912 36.2087 26.9912 36.5891C26.9912 36.9695 27.3043 37.2808 27.6869 37.2808ZM27.6869 36.0012C27.9999 36.0012 28.2782 36.2779 28.2782 36.5891C28.2782 36.9004 28.0347 37.177 27.6869 37.177C27.3738 37.177 27.0956 36.9004 27.0956 36.5891C27.0956 36.2779 27.3738 36.0012 27.6869 36.0012Z" fill="#231F20"/>
<path fill-rule="evenodd" clip-rule="evenodd" d="M43.4082 37.9725V44.7854C43.4082 45.7537 44.1039 46.4108 45.043 46.4108H53.6691V44.7508H46.5734C46.1908 44.7508 45.9473 44.5433 45.9473 44.1283V38.595C45.9473 38.18 46.1908 37.9725 46.5734 37.9725H53.6691V36.3125H45.043C44.1039 36.3471 43.4082 37.0388 43.4082 37.9725Z" fill="#231F20"/>
<path fill-rule="evenodd" clip-rule="evenodd" d="M70.3653 44.163V41.9843H78.2262V40.3243H70.3653V38.6297C70.3653 38.2147 70.6088 38.0072 70.9914 38.0072H78.1914V36.3472H69.461C68.487 36.3472 67.8262 37.0043 67.8262 37.9726V44.7855C67.8262 45.7538 68.5218 46.4109 69.461 46.4109H78.9566V44.7509H70.9914C70.6088 44.7855 70.3653 44.578 70.3653 44.163Z" fill="#231F20"/>
<path fill-rule="evenodd" clip-rule="evenodd" d="M63.0603 40.3243H57.3907V36.3472H54.8516V46.4455H57.3907V41.9843H63.0603V46.4455H65.5994V36.3472H63.0603V40.3243Z" fill="#231F20"/>
<path fill-rule="evenodd" clip-rule="evenodd" d="M143.826 38.0072H148.278V46.4455H150.817V38.0072H155.304V36.3472H143.826V38.0072Z" fill="#231F20"/>
<path fill-rule="evenodd" clip-rule="evenodd" d="M123.373 36.3472H120.834V46.4455H131.304V44.7855H123.373V36.3472Z" fill="#231F20"/>
<path fill-rule="evenodd" clip-rule="evenodd" d="M86.0174 44.578C85.9479 44.7163 85.8783 44.7509 85.6348 44.7509C85.3914 44.7509 85.3218 44.7163 85.2522 44.578C85.2174 44.4742 81.7392 36.3472 81.7392 36.3472H79.0957C79.0957 36.3472 82.9566 44.9584 83.2001 45.4772C83.4435 45.9959 83.687 46.4455 84.6609 46.4455H86.6087C87.5479 46.4455 87.7914 45.9959 88.0696 45.4772C88.3131 44.9584 92.174 36.3472 92.174 36.3472H89.5305C89.4957 36.3472 86.0522 44.5088 86.0174 44.578Z" fill="#231F20"/>
<path fill-rule="evenodd" clip-rule="evenodd" d="M116.974 36.3472H108.626C107.652 36.3472 106.991 37.0043 106.991 37.9726V44.7855C106.991 45.7538 107.687 46.4109 108.626 46.4109H112.869H116.974C117.948 46.4109 118.609 45.7193 118.609 44.7855V37.9726C118.609 37.0043 117.913 36.3472 116.974 36.3472ZM116.069 44.163C116.069 44.578 115.826 44.7855 115.443 44.7855H112.869H110.156C109.774 44.7855 109.53 44.578 109.53 44.163V38.6297C109.53 38.2147 109.774 38.0072 110.156 38.0072H115.443C115.826 38.0072 116.069 38.2147 116.069 38.6297V44.163Z" fill="#231F20"/>
<path fill-rule="evenodd" clip-rule="evenodd" d="M134.643 44.163V41.9843H142.504V40.3243H134.643V38.6297C134.643 38.2147 134.886 38.0072 135.269 38.0072H142.469V36.3472H133.738C132.764 36.3472 132.104 37.0043 132.104 37.9726V44.7855C132.104 45.7538 132.799 46.4109 133.738 46.4109H143.234V44.7509H135.269C134.886 44.7855 134.643 44.578 134.643 44.163Z" fill="#231F20"/>
<path fill-rule="evenodd" clip-rule="evenodd" d="M103.06 42.1918C104.034 42.1918 104.695 41.5001 104.695 40.5663V37.9726C104.695 37.0043 103.999 36.3472 103.06 36.3472H93.2168V46.4109H95.7559V37.9726H101.53C101.912 37.9726 102.156 38.1801 102.156 38.5951V39.8747C102.156 40.2897 101.912 40.4972 101.53 40.4972C101.53 40.4972 97.7733 40.4972 97.5298 40.4972C97.1472 40.4972 96.8342 40.8084 96.8342 41.1888C96.8342 41.3963 96.9385 41.6038 97.0429 41.7422C97.2168 41.9151 102.678 46.4109 102.678 46.4109H106.539L100.973 42.1572L103.06 42.1918Z" fill="#231F20"/>
<path fill-rule="evenodd" clip-rule="evenodd" d="M156.869 37.0388C156.869 36.8659 156.73 36.8313 156.591 36.8313H156.243V37.6267H156.348V37.2809H156.487L156.695 37.6267H156.834L156.591 37.2809C156.765 37.2809 156.869 37.2117 156.869 37.0388ZM156.591 37.1771H156.382V36.935H156.591C156.661 36.935 156.765 36.935 156.765 37.0388C156.765 37.1425 156.73 37.1771 156.591 37.1771Z" fill="#231F20"/>
<path fill-rule="evenodd" clip-rule="evenodd" d="M156.522 36.5547C156.139 36.5547 155.826 36.8659 155.826 37.2464C155.826 37.6268 156.139 37.938 156.522 37.938C156.904 37.938 157.217 37.6268 157.217 37.2464C157.217 36.8659 156.904 36.5547 156.522 36.5547ZM156.522 37.8343C156.209 37.8343 155.931 37.5576 155.931 37.2464C155.931 36.9351 156.209 36.6584 156.522 36.6584C156.835 36.6584 157.113 36.9351 157.113 37.2464C157.113 37.5576 156.835 37.8343 156.522 37.8343Z" fill="#231F20"/>
</svg>
