<svg width="160" height="83" viewBox="0 0 160 83" fill="none" xmlns="http://www.w3.org/2000/svg">
<path d="M25.1822 18.1909C12.7996 18.1909 2.78223 28.6351 2.78223 41.5001C2.78223 54.3651 12.7996 64.8092 25.1822 64.8092C37.5648 64.8092 47.5822 54.3651 47.5822 41.5001C47.5475 28.6351 37.5301 18.1909 25.1822 18.1909ZM39.1996 56.0942C35.617 59.8292 30.6431 62.1463 25.1822 62.1463C19.7214 62.1463 14.7474 59.8292 11.1648 56.0942C7.58223 52.3592 5.35614 47.2063 5.35614 41.5001C5.35614 35.7938 7.58223 30.6409 11.1648 26.9059C14.7474 23.1709 19.6866 20.8538 25.1822 20.8538C30.6431 20.8538 35.617 23.1709 39.1996 26.9059C42.7822 30.6409 45.0083 35.7938 45.0083 41.5001C45.0083 47.2063 42.7822 52.3592 39.1996 56.0942Z" fill="black"/>
<path d="M33.1474 30.9867C32.7996 30.2951 32.1039 30.2605 32.0691 30.2605H25.5648C25.5648 30.2605 25.5648 30.2605 25.53 30.2605C25.3909 30.2605 24.9039 30.2951 24.4169 30.6063C23.9996 30.883 23.7561 31.2288 23.7561 31.2634L14.8865 43.9555C14.8865 43.9555 14.5387 44.4051 14.5039 44.993C14.5039 45.5809 14.8517 45.9959 14.8517 46.0305L17.843 50.3188C17.843 50.3534 18.33 50.9759 19.1996 50.9759C20.1039 50.9759 20.5561 50.2497 20.5561 50.2151L32.8691 32.5776C32.8691 32.5776 33.2169 32.1626 33.2169 31.5747C33.2865 31.4017 33.2517 31.1942 33.1474 30.9867Z" fill="black"/>
<path d="M120.452 37.3847C119.652 38.1801 119.339 39.2867 119.374 40.843V45.5463C119.374 47.1026 119.687 48.1747 120.452 49.0047C121.217 49.8347 122.295 50.1805 123.756 50.1459H132.835H132.869C134.33 50.1459 135.374 49.8001 136.139 49.0047C136.939 48.2092 137.252 47.1372 137.217 45.5463V40.843C137.217 39.2867 136.904 38.2147 136.139 37.3847C135.374 36.5547 134.33 36.2434 132.869 36.2434H132.835H123.756H123.722C122.261 36.2434 121.217 36.5892 120.452 37.3847ZM123.304 45.1659V41.0505C123.339 40.428 123.617 40.1167 124.208 40.0822H132.348C132.939 40.1167 133.252 40.3934 133.252 41.0505V45.3042C133.217 45.9267 132.939 46.238 132.348 46.2726H124.208C123.617 46.2034 123.339 45.7884 123.304 45.1659Z" fill="black"/>
<path d="M90.9215 36.2434H81.8432C80.3823 36.2434 79.3041 36.5892 78.5389 37.3847C77.7389 38.1801 77.4258 39.2522 77.4606 40.843V45.5463C77.4606 47.1026 77.7736 48.1747 78.5389 49.0047C79.3041 49.8347 80.3823 50.1805 81.8432 50.1459H90.9215H90.9563C92.4171 50.1459 93.4606 49.8001 94.2258 49.0047C95.0258 48.2092 95.3389 47.1372 95.3041 45.5463V40.843C95.3041 39.2867 94.991 38.2147 94.2258 37.3847C93.4606 36.5547 92.4171 36.2434 90.9563 36.2434H90.9215ZM81.391 45.0967V41.0505C81.4258 40.428 81.7041 40.1167 82.2954 40.0822H90.4345C91.0258 40.1167 91.3389 40.428 91.3389 41.0505V45.3042C91.3041 45.9267 91.0258 46.238 90.4345 46.2726H82.2954C81.7041 46.2034 81.4258 45.7192 81.391 45.0967Z" fill="black"/>
<path d="M62.852 36.2087H61.7737C61.6694 36.2087 61.5998 36.2087 61.4955 36.2087H61.252H61.0433C59.8955 36.2779 59.0607 36.6237 58.365 37.35C57.565 38.1454 57.252 39.2521 57.2868 40.7737V50.0767H61.252V46.2379H70.6433V42.5375H61.2868V40.8083C61.2868 40.6354 61.3216 40.4279 61.3911 40.2896C61.4607 40.1858 61.5302 40.1167 61.8085 40.0821H61.9129H73.7389V36.2087H62.852Z" fill="black"/>
<path d="M98.2959 36.2434V40.1167H98.7133H105.392V50.1113H109.322V40.1167H116.418V36.2434H98.2959Z" fill="black"/>
<path d="M140.835 36.2434V50.1113H144.8V40.0822H152.348H152.487C152.626 40.0822 152.835 40.1859 153.009 40.3588C153.183 40.5317 153.287 40.7738 153.287 41.0159V50.0767H157.252V40.7738C157.252 39.2176 156.939 38.1455 156.174 37.3155L155.826 37.6959L156.105 37.3847C155.409 36.6584 154.505 36.3126 153.287 36.2434H153.009C152.939 36.2434 152.835 36.2434 152.731 36.2434H140.835Z" fill="black"/>
<path d="M25.1823 59.3106C25.9127 59.3106 26.3997 58.6535 26.3997 58.6535L33.8084 48.071L41.2171 37.4885C41.2171 37.4885 41.5649 37.1081 41.5649 36.4856C41.5649 35.9669 41.391 35.7248 41.391 35.7248L37.9823 30.9177C37.9823 30.9177 37.704 30.5027 37.1475 30.5027C36.591 30.5027 36.1736 30.9869 36.1736 30.9869L28.591 41.8114L21.0084 52.636C21.0084 52.636 20.6953 53.0164 20.6953 53.6044C20.6953 54.1577 21.0431 54.5727 21.0431 54.5727L23.8953 58.6189C23.8953 58.6189 24.2779 59.3106 25.1823 59.3106Z" fill="black"/>
<path d="M21.2513 31.056C20.9035 30.3298 20.1383 30.2952 19.9991 30.2952H19.9644H13.6687C13.6687 30.2952 13.6339 30.2952 13.5991 30.2952C13.46 30.2952 13.0078 30.3298 12.5904 30.5718C12.1731 30.8139 11.9296 31.2289 11.8948 31.2289L8.86871 35.5864C8.83392 35.6556 8.55566 35.9668 8.55566 36.5202C8.55566 37.1081 8.93827 37.6268 8.97306 37.6268L11.9296 41.8806C11.9296 41.8806 12.3818 42.5377 13.2861 42.5377C14.1904 42.5377 14.6774 41.846 14.6774 41.846L21.1818 32.5085C21.1818 32.4739 21.3904 32.1972 21.3904 31.7131C21.4252 31.5056 21.3904 31.2635 21.2513 31.056Z" fill="black"/>
</svg>
