<svg width="160" height="83" viewBox="0 0 160 83" fill="none" xmlns="http://www.w3.org/2000/svg">
<path d="M2.78223 34.5143C2.78223 29.4305 5.98223 25.9722 11.9996 25.9722H51.1301V33.2001H13.1822C12.104 33.2001 11.1648 33.7534 11.1648 35.3442V47.3792C11.1648 48.8317 11.7909 49.8001 13.7387 49.8001H40.4518C41.8431 49.8001 42.9561 49.3159 42.9561 47.4484V44.6126H27.304V37.7305H51.1301V48.7972C51.1301 54.0884 47.2692 56.9934 41.1474 56.9934H12.0692C6.19092 56.9934 2.78223 53.8118 2.78223 48.5205V34.5143ZM86.017 57.028L99.3735 33.4768V57.028H107.756V25.9722H94.8866L82.1561 48.2784L69.4257 25.9722H56.5561V57.028H64.9388V33.4768L78.2953 57.028H86.017ZM157.217 57.028H122.191C116.278 57.028 112.904 53.8463 112.904 48.5551V34.5143C112.904 29.4305 116.069 25.9722 122.121 25.9722H157.217V33.788H123.304C122.226 33.788 121.287 34.3413 121.287 35.9322V46.8259C121.287 48.313 121.913 49.2467 123.861 49.2467H157.252L157.217 57.028Z" fill="#CF4037"/>
</svg>
