<svg width="160" height="83" viewBox="0 0 160 83" fill="none" xmlns="http://www.w3.org/2000/svg">
<path d="M60.6601 37.0042H59.1992V44.6471H60.6601V37.0042Z" fill="#020B24"/>
<path d="M103.199 37.0042H101.738V44.6471H103.199V37.0042Z" fill="#020B24"/>
<path d="M86.9902 44.6471V37.0042H92.9033V38.0762H88.3815V40.3933H91.6163V41.4654H88.3815V44.6471H86.9902Z" fill="#020B24"/>
<path d="M142.747 44.6471V38.0762H140.068V37.0042H146.851V38.0762H144.173V44.6471H142.747Z" fill="#020B24"/>
<path d="M131.13 37.0042H129.669V44.6471H131.13V37.0042Z" fill="#020B24"/>
<path d="M157.217 37.0042H155.756V44.6471H157.217V37.0042Z" fill="#020B24"/>
<path d="M118.816 44.6471L114.295 39.2175V44.6471H112.903V37.0042H113.982L118.538 42.4337V37.0042H119.929V44.6471H118.816Z" fill="#020B24"/>
<path d="M76.2773 44.6471L71.7556 39.2175V44.6471H70.3643V37.0042H71.4425L75.999 42.4337V37.0042H77.3903V44.6471H76.2773Z" fill="#020B24"/>
<path d="M23.5474 32.2316C13.9127 32.2316 6.15614 36.1741 6.15614 40.8775C6.15614 43.5404 9.32136 45.65 14.1214 46.7912L22.504 37.0041H23.5474L16.3127 51.2871C8.41701 49.9037 2.78223 46.3071 2.78223 41.915C2.78223 36.2779 12.0692 31.7129 23.5474 31.7129C35.0257 31.7129 44.3127 36.2779 44.3127 41.915C44.3127 46.3071 38.6779 49.9037 30.7822 51.2871L23.5474 37.0041H24.5909L32.9735 46.7912C37.7735 45.6154 40.9387 43.5404 40.9387 40.8775C40.9387 36.1396 33.1822 32.2316 23.5474 32.2316Z" fill="#020B24"/>
</svg>
