<svg width="160" height="83" viewBox="0 0 160 83" fill="none" xmlns="http://www.w3.org/2000/svg">
<path fill-rule="evenodd" clip-rule="evenodd" d="M10.5388 52.9126C10.5388 53.8118 10.1214 54.2613 9.18223 54.2613H4.13875C3.2344 54.2613 2.78223 53.8118 2.78223 52.9126V30.0184C2.78223 29.1193 3.19962 28.6697 4.13875 28.6697H9.18223C10.0866 28.6697 10.5388 29.0847 10.5388 30.0184V52.9126Z" fill="#EC1C24"/>
<path fill-rule="evenodd" clip-rule="evenodd" d="M17.5996 52.9126V49.8693C17.5996 48.9701 18.0518 48.5205 18.9561 48.5205C18.9561 48.5205 40.2431 48.5205 40.8344 48.5205C41.217 48.5205 41.4257 48.3822 41.5301 48.1055C41.5996 47.8634 41.5648 47.483 41.0431 47.3101C40.5214 47.1372 23.3387 41.7076 22.6083 41.4655C19.0257 40.2551 17.6692 37.9726 17.6692 35.2059C17.6692 31.6784 20.0344 28.6697 25.5648 28.6697C31.2344 28.6697 45.53 28.6697 45.53 28.6697C46.4692 28.6697 46.8866 29.1193 46.8866 30.0184V33.1655C46.8866 34.0993 46.4692 34.5143 45.5648 34.5143C45.5648 34.5143 26.33 34.5143 25.8431 34.5143C25.3909 34.5143 25.1822 34.618 25.1127 34.8601C25.0431 35.1022 25.0431 35.4826 25.5648 35.6209C26.2257 35.8284 40.6257 40.3588 43.304 41.2234C47.4083 42.5376 48.9387 44.4397 48.9387 47.9672C48.9387 52.1863 46.017 54.1922 40.9735 54.2613C39.0605 54.2959 18.9561 54.2613 18.9561 54.2613C18.017 54.2613 17.5996 53.9155 17.5996 52.9126Z" fill="#EC1C24"/>
<path fill-rule="evenodd" clip-rule="evenodd" d="M61.4254 28.6697C62.3297 28.6697 62.7819 29.0847 62.7819 30.0184C62.7819 30.0184 62.7819 42.1226 62.7819 44.5434C62.7819 46.9643 63.3732 48.3822 66.6776 48.4859C67.4428 48.5205 68.6254 48.5205 69.6341 48.5205C70.6428 48.5205 72.0689 48.5205 72.8341 48.4859C76.1384 48.3822 76.521 46.9643 76.521 44.5434C76.521 42.1226 76.521 30.0184 76.521 30.0184C76.521 29.1193 76.9037 28.6697 77.8776 28.6697H82.9906C83.9297 28.6697 84.3471 29.1193 84.3471 30.0184C84.3471 30.0184 84.3471 42.8488 84.3471 45.7538C84.3471 49.973 83.6515 54.123 75.5471 54.2613C72.7645 54.2959 69.6689 54.3305 69.6689 54.3305C69.6689 54.3305 66.3645 54.2959 63.5819 54.2613C55.9645 54.1576 55.0254 49.8001 55.0254 45.7538C55.0254 42.8488 55.0254 30.0184 55.0254 30.0184C55.0254 29.1193 55.4428 28.6697 56.3471 28.6697H61.4254Z" fill="#EC1C24"/>
<path fill-rule="evenodd" clip-rule="evenodd" d="M134.296 28.6697C135.2 28.6697 135.652 29.0847 135.652 30.0184C135.652 30.0184 135.652 42.1226 135.652 44.5434C135.652 46.9643 136.243 48.3822 139.548 48.4859C140.313 48.5205 141.496 48.5205 142.504 48.5205C143.513 48.5205 144.939 48.5205 145.704 48.4859C149.009 48.3822 149.391 46.9643 149.391 44.5434C149.391 42.1226 149.391 30.0184 149.391 30.0184C149.391 29.1193 149.774 28.6697 150.748 28.6697H155.861C156.8 28.6697 157.217 29.1193 157.217 30.0184C157.217 30.0184 157.217 42.8488 157.217 45.7538C157.217 49.973 156.522 54.123 148.417 54.2613C145.635 54.2959 142.539 54.3305 142.539 54.3305C142.539 54.3305 139.235 54.2959 136.452 54.2613C128.8 54.1576 127.896 49.8001 127.896 45.7538C127.896 42.8488 127.896 30.0184 127.896 30.0184C127.896 29.1193 128.313 28.6697 129.252 28.6697H134.296Z" fill="#EC1C24"/>
<path fill-rule="evenodd" clip-rule="evenodd" d="M121.739 52.9126C121.739 53.9155 121.321 54.2613 120.382 54.2613C120.382 54.2613 100.278 54.2959 98.3646 54.2613C93.3212 54.1922 90.3994 52.1863 90.3994 47.9672C90.3994 44.4397 91.9299 42.5376 96.0342 41.2234C98.6777 40.3588 113.112 35.8284 113.773 35.6209C114.295 35.448 114.33 35.1022 114.26 34.8601C114.191 34.618 113.982 34.5143 113.53 34.5143C113.043 34.5143 93.8081 34.5143 93.8081 34.5143C92.9038 34.5143 92.4864 34.0993 92.4864 33.1655V30.0184C92.4864 29.1193 92.9038 28.6697 93.8429 28.6697C93.8429 28.6697 108.139 28.6697 113.808 28.6697C119.339 28.6697 121.704 31.6784 121.704 35.2059C121.704 37.9726 120.347 40.2551 116.765 41.4655C116.034 41.7076 98.8168 47.1372 98.3299 47.3101C97.8081 47.483 97.7733 47.8634 97.8429 48.1055C97.9472 48.3822 98.1212 48.5205 98.5385 48.5205C99.1298 48.5205 120.417 48.5205 120.417 48.5205C121.321 48.5205 121.773 48.9355 121.773 49.8693L121.739 52.9126Z" fill="#EC1C24"/>
</svg>
