<svg width="160" height="83" viewBox="0 0 160 83" fill="none" xmlns="http://www.w3.org/2000/svg">
<path d="M154.922 51.4253C152.591 52.8432 148.209 55.4716 141.704 59.3103C141.565 59.4141 141.426 59.4486 141.322 59.4832C141.287 59.4832 141.252 59.4832 141.218 59.4486C141.113 59.3449 141.044 59.2066 141.044 59.0682C141.044 51.2524 141.044 43.4711 141.009 35.6553C141.009 35.3441 140.939 35.1366 140.591 35.0674C140.557 35.0674 140.522 35.0674 140.487 35.0674C140.313 35.1711 140.174 35.2403 140.104 35.2749C128.418 42.7795 116.765 50.3186 105.113 57.8924C104 58.6186 103.096 58.6878 101.635 58.6878C96.6958 58.6878 91.7915 58.7224 86.8523 58.6878C84.1393 58.6532 81.4262 58.7224 78.7132 58.6532C77.2871 58.6186 76.4523 57.5466 76.4175 56.1632C76.3828 55.1603 76.3828 54.2611 76.3828 53.5349C76.4176 44.7507 76.4523 35.9666 76.348 27.1824C76.348 27.0441 76.2784 26.9057 76.1741 26.802C76.1393 26.7674 76.1393 26.7674 76.1045 26.7674C75.9654 26.7674 75.861 26.7674 75.8262 26.802C68.0697 31.4361 60.3132 36.0011 52.5915 40.6699C52.3828 40.8082 52.2436 40.9466 52.1741 41.1195C52.1741 41.1541 52.1741 41.1886 52.1741 41.2232C52.2784 41.3616 52.3828 41.4999 52.5219 41.6036C58.0176 47.1024 63.548 52.6011 69.0784 58.0999C69.1828 58.2036 69.2523 58.3074 69.2871 58.3766C69.3567 58.5149 69.2523 58.6878 69.1132 58.6878C68.348 58.7224 67.3393 58.6878 66.8176 58.6878C62.2958 58.7224 57.7741 58.6878 53.2523 58.6532C52.4523 58.6532 51.7219 58.4457 51.1654 57.8924C47.8263 54.5724 44.4523 51.2524 41.0784 47.8978C40.9741 47.7941 40.8002 47.7595 40.661 47.8286C40.4176 47.9324 40.1393 48.0707 39.861 48.2436C34.3654 51.5636 28.835 54.8491 23.3045 58.1345C22.6437 58.5149 21.9132 58.7224 21.0437 58.7224C17.8089 58.6878 14.5741 58.6532 11.3393 58.6878C8.55671 58.7224 6.43497 58.7224 5.00889 58.6878C3.93063 58.6532 3.13063 57.7195 2.81759 56.7857C2.74802 56.5782 2.71324 56.0941 2.74802 55.3332C2.74802 54.4686 2.7828 53.5695 2.74802 52.7049C2.74802 49.0736 2.81759 45.4424 2.74802 41.7766C2.7828 38.7332 2.7828 36.5891 2.85237 35.3095C2.85237 34.8945 2.9915 34.3757 3.23498 33.7532C3.5828 32.7503 4.3828 31.9549 5.28715 31.4361C9.63497 28.8424 13.948 26.2486 18.3306 23.6549C18.5045 23.5511 18.6784 23.482 18.8524 23.5166C18.8871 23.5166 18.9219 23.5511 18.9219 23.5857C19.0263 23.7932 19.0611 23.897 19.0611 23.9661C19.0263 25.8682 19.0611 27.8049 19.0611 29.6724C19.0611 36.5891 19.0611 43.4711 19.0611 50.3878C19.0611 50.5607 19.0958 50.6991 19.1654 50.8374C19.1654 50.872 19.2002 50.872 19.235 50.872C19.4089 50.872 19.548 50.8374 19.6176 50.7682C24.4871 47.8632 35.2697 41.4307 52.0002 31.4361C55.861 29.1191 60.348 26.4216 63.5828 24.5195C64.4176 24.0353 65.148 23.9316 66.1915 23.9316C73.948 23.9661 81.7045 23.9661 89.461 23.9316C91.3741 23.9316 92.2784 24.8653 92.2784 26.7328C92.3132 36.3124 92.3132 45.892 92.2784 55.5061C92.2784 55.7482 92.4871 56.0595 92.8001 55.852C95.4784 54.2266 98.0523 52.4628 100.661 50.8028C101.287 50.4224 101.844 50.042 102.331 49.7307C115.2 41.3616 128.139 33.0616 141.044 24.727C142.191 24.0007 142.991 23.897 144.348 23.897C147.618 23.897 150.887 23.9316 154.157 23.897C154.713 23.897 155.131 23.9316 155.444 24.0353C156.8 24.4849 157.078 25.557 157.078 26.8711C157.078 32.5774 157.078 38.3182 157.078 44.0245C157.183 46.8949 157.704 49.7307 154.922 51.4253Z" fill="black"/>
</svg>
