<svg width="160" height="83" viewBox="0 0 160 83" fill="none" xmlns="http://www.w3.org/2000/svg">
<path d="M87.7211 44.6123C87.6515 44.6469 87.3385 44.6469 87.2341 44.6469H77.7037V46.8602H87.408C87.4776 46.8602 88.0689 46.8602 88.1732 46.8257C90.1558 46.6527 91.0602 44.9927 91.0602 43.5748C91.0602 42.1223 90.1211 40.5315 88.3124 40.3586C87.9645 40.324 87.6515 40.324 87.5471 40.324H81.2167C80.9385 40.324 80.6254 40.2894 80.5211 40.2548C80.0341 40.1165 79.8254 39.7015 79.8254 39.3211C79.8254 38.9752 79.9993 38.5602 80.5211 38.3873C80.6602 38.3527 80.8341 38.3182 81.1819 38.3182H90.3298V36.1394H81.0428C80.6602 36.1394 80.3471 36.174 80.1037 36.2086C78.5037 36.4161 77.3906 37.6957 77.3906 39.3211C77.3906 40.6352 78.2254 42.1915 80.0341 42.4336C80.3819 42.4682 80.8341 42.4682 81.0428 42.4682H87.1993C87.3037 42.4682 87.5819 42.4682 87.6515 42.5027C88.3471 42.6065 88.5906 43.1252 88.5906 43.5748C88.5906 44.0244 88.3124 44.474 87.7211 44.6123Z" fill="black"/>
<path d="M69.6348 44.6123C69.5652 44.6469 69.2521 44.6469 69.1478 44.6469H59.5826V46.8602H69.2869C69.3565 46.8602 69.9478 46.8602 70.0521 46.8257C72.0347 46.6527 72.9391 44.9927 72.9391 43.5748C72.9391 42.1223 72 40.5315 70.1913 40.3586C69.8434 40.324 69.5304 40.324 69.4261 40.324H63.0956C62.8174 40.324 62.5043 40.2894 62.4 40.2548C61.913 40.1165 61.7043 39.7015 61.7043 39.3211C61.7043 38.9752 61.8782 38.5602 62.4 38.3873C62.5391 38.3527 62.713 38.3182 63.0608 38.3182H72.2087V36.1394H62.9217C62.5391 36.1394 62.2261 36.174 61.9826 36.2086C60.3826 36.4161 59.2695 37.6957 59.2695 39.3211C59.2695 40.6352 60.1043 42.1915 61.913 42.4336C62.2608 42.4682 62.713 42.4682 62.9217 42.4682H69.0782C69.1826 42.4682 69.4608 42.4682 69.5304 42.5027C70.2261 42.6065 70.4695 43.1252 70.4695 43.5748C70.5391 44.0244 70.2608 44.474 69.6348 44.6123Z" fill="black"/>
<path d="M54.6432 36.105H52.2432V46.895H54.6432V36.105Z" fill="black"/>
<path d="M46.9214 46.8604V36.105H44.5214V44.1283L36.5214 36.105H33.4258V46.8604H35.8258V38.8025L43.8953 46.8604H46.9214Z" fill="black"/>
<path d="M124.174 36.105V44.1283L116.174 36.105H113.078V46.8604H115.478V38.8025L123.513 46.8604H126.574V36.105H124.174Z" fill="black"/>
<path d="M100.591 36.105L93.8428 46.895H96.7645L97.9819 44.9583H105.878L107.095 46.895H109.982L103.234 36.105H100.591ZM104.591 42.9179H99.1645L101.878 38.595L104.591 42.9179Z" fill="black"/>
<path d="M46.7825 29.9837C51.6173 15.9429 64.9738 6.5016 79.9999 6.5016C95.026 6.5016 108.383 15.9429 113.217 29.9837L113.252 30.0874H123.826V28.8079L119.443 28.2891C116.73 27.9779 116.139 26.7674 115.409 25.2804L115.235 24.8999C108.904 11.4816 95.0608 2.7666 80.0347 2.7666C64.9738 2.7666 51.1651 11.4816 44.7999 24.9691L44.626 25.3495C43.8956 26.8712 43.3043 28.047 40.5912 28.3583L36.1738 28.8424V30.122H46.7477L46.7825 29.9837Z" fill="black"/>
<path d="M113.286 52.9124L113.251 53.0161C108.417 67.0569 95.0602 76.4982 80.0341 76.4982C65.008 76.4982 51.6515 67.0569 46.8167 53.0161L46.7819 52.9124H36.208V54.1919L40.5906 54.7107C43.3037 55.0219 43.895 56.2324 44.6254 57.7194L44.7993 58.0999C51.1645 71.5874 65.008 80.3023 80.0341 80.3023C95.0602 80.3023 108.904 71.5874 115.269 58.1344L115.443 57.754C116.173 56.2324 116.765 55.0565 119.478 54.7453L123.86 54.2265V52.9124H113.286Z" fill="black"/>
</svg>
